<?xml version="1.0" encoding="UTF-8"?>

<svg xmlns="http://www.w3.org/2000/svg" version="1.1"
	width="841mm"
	height="1189mm"
	viewBox="0 0 841 1189">
	<!-- Working space 0 0 841 1189 -->
	<defs>
		<radialGradient
			id="radialGradient3661"
			gradientUnits="userSpaceOnUse"
			cy="29.149"
			cx="282.65"
			gradientTransform="matrix(.14777 .23089 -.24680 .15795 -26.318 -62.617)"
			r="19.571">
				<stop stop-color="#71b2f8" offset="0"/>
				<stop stop-color="#002795" offset="1"/>
		</radialGradient>
		<radialGradient
			id="radialGradient3817"
			gradientUnits="userSpaceOnUse"
			cy="33.9"
			cx="270.58"
			gradientTransform="matrix(.26631 .065024 -.17931 .73438 -60.668 -36.938)"
			r="19.571">
				<stop stop-color="#ff6d0f" offset="0"/>
				<stop stop-color="#ff1000" offset="1"/>
		</radialGradient>
	</defs>
	<!-- Set display:none to hide FreeCAD Logo -->
	<g
		style="display:inline"
		id="freecad-logo"
		transform="translate(783, 1134) scale(3)"
		fill-rule="evenodd"
		stroke-width=".45621">
		<path d="m0.22811 0.22835v13.256h2.9558v-5.1876h2.09v-2.0452h-2.09v-2.2075h5.1486v-3.8087l-8.1044-0.0075z"
			stroke="#370700"
			fill="url(#radialGradient3817)"/>
		<path d="m13.386 4.1792-1.7193 0.98645-0.75925-0.26348-0.72439-1.8513-1.1395 0.05988-0.51976 1.9144-0.72743 0.34835-1.8143-0.79367-0.76632 0.85156 0.98645 1.7193-0.26957 0.75702-1.8513 0.72439 0.065967 1.1417 1.9144 0.51976 0.34835 0.72743-0.79976 1.8121 0.85156 0.76632 1.7193-0.98645 0.76311 0.27179 0.7183 1.8491 1.1478-0.06375 0.51367-1.9166 0.72743-0.34835 1.8182 0.80198 0.76632-0.85156-0.98645-1.7193 0.2657-0.76533 1.8491-0.7183-0.05766-1.1456-1.9166-0.51367-0.34835-0.72743 0.7959-1.8204-0.85156-0.76632zm-2.5751 2.8195 0.35295 0.20478 0.30579 0.27725 0.24481 0.33087 0.17611 0.36787 0.10354 0.39656 0.01715 0.4064-0.0587 0.4063-0.13396 0.38571-0.2131 0.35681-0.26894 0.30192-0.33087 0.24481-0.36787 0.17611-0.39656 0.10354-0.40863 0.02325-0.4063-0.0587-0.38571-0.13396-0.35681-0.2131-0.2997-0.27503-0.24703-0.32478-0.17611-0.36787-0.10132-0.40264-0.02324-0.40863 0.05869-0.4063 0.13396-0.38571 0.21087-0.35072 0.27116-0.30801 0.33087-0.24481 0.36787-0.17611 0.40264-0.10132 0.40641-0.01715 0.4063 0.05869 0.38571 0.13396z" 
		stroke="#000137"
		fill="url(#radialGradient3661)"/>
	</g>
<g id="right leg"
   transform="rotate(60,200,520) translate(200,520) scale(2,2)"
  >
<g   stroke="rgb(0, 0, 0)"
   stroke-width="0.175"
   stroke-linecap="butt"
   stroke-linejoin="miter"
   fill="none"
   transform="scale(1,-1)"
  >
<path id= "1" d=" M 23.6348 19.8924 L 25.6147 21.0355 " />
<path id= "2" d=" M -10.3063 0.296444 L -7.47792 1.92944 " />
</g>
<g   stroke="rgb(0, 0, 0)"
   stroke-width="0.175"
   stroke-linecap="butt"
   stroke-linejoin="miter"
   fill="none"
   transform="scale(1,-1)"
  >
<path id= "1" d=" M -14.8492 60.829 L -29.5462 79.1122 " />
<path id= "2" d=" M 19.6019 23.7922 L -18.8281 45.9798 " />
<path id= "3" d=" M -18.8281 45.9798 L -33.5251 64.263 " />
<path id= "4" d=" M -33.5251 64.263 L -33.7888 64.4153 " />
<path id= "5" d=" M -33.7888 64.4153 L -33.7888 81.5617 " />
<path id= "6" d=" M -29.5462 79.1122 L -33.7888 81.5617 " />
<path id= "7" d=" M -29.5462 79.1122 L -29.5462 79.1122 " />
<path id= "8" d=" M 19.6019 40.9386 L -14.8492 60.829 " />
<path d="M19.6019 40.9386 A11 6.35085 -60 0 1 16.4203 40.5531" />
<path d="M16.4203 40.5531 A11 6.35085 -60 0 1 19.6019 23.7922" />
<path id= "11" d=" M -64.083 39.1704 L -32.9703 57.1333 " />
<path id= "12" d=" M -32.9703 57.1333 L -22.3637 43.9385 " />
<path id= "13" d=" M -22.3637 43.9385 L 18.3848 20.4124 " />
<path d="M18.3848 20.4124 A10.5 6.06218 -60 0 1 23.6348 19.8924" />
<path d="M22.2739 26.7403 A5.5 3.17543 -60 0 1 16.8091 34.001" />
<path d="M15.4973 33.6611 A5.5 3.17543 -60 0 1 14.7578 32.7003" />
<path d="M21.9404 25.1134 A5.5 3.17543 -60 0 1 22.2739 26.7403" />
<path id= "18" d=" M 18.0463 40.0405 L 20.3647 38.7019 " />
<path id= "19" d=" M 18.0463 40.0405 L 19.6019 40.9386 " />
<path id= "20" d=" M 18.3848 20.4124 L 20.3647 21.5555 " />
<path id= "21" d=" M 18.0463 22.894 L 20.3647 21.5555 " />
<path id= "22" d=" M 18.0463 22.894 L 19.6019 23.7922 " />
<path id= "23" d=" M -22.3637 43.9385 L -18.8281 45.9798 " />
<path id= "24" d=" M -56.3048 24.3426 L -53.4764 25.9756 " />
<path id= "25" d=" M -64.083 39.1704 L -53.4764 25.9756 " />
<path id= "26" d=" M -71.0017 42.6259 L -33.5251 64.263 " />
<path id= "27" d=" M -56.3048 24.3426 L -71.0017 42.6259 " />
<path id= "28" d=" M -71.2655 42.7781 L -33.7888 64.4153 " />
<path id= "29" d=" M -71.0017 42.6259 L -71.2655 42.7781 " />
<path id= "30" d=" M -71.2655 42.7781 L -71.2655 59.9246 " />
<path id= "31" d=" M -71.2655 59.9246 L -33.7888 81.5617 " />
<path d="M-56.0627 66.2524 A1 0.57735 -120 0 0 -54.8556 67.5267" />
<path d="M-54.8556 67.5267 A1 0.57735 -120 1 0 -55.8556 65.7946" />
<path d="M-55.8556 65.7946 A1 0.57735 -120 0 0 -56.0627 66.2524" />
<path d="M-48.3906 64.5582 A1 0.57735 -120 0 0 -47.1835 65.8325" />
<path d="M-47.1835 65.8325 A1 0.57735 -120 1 0 -48.1835 64.1004" />
<path d="M-48.1835 64.1004 A1 0.57735 -120 0 0 -48.3906 64.5582" />
<path d="M-48.9916 64.2112 A5.5 3.17543 60 0 1 -50.1307 66.7289" />
<path d="M-50.1307 66.7289 A5.5 3.17543 60 0 1 -55.6307 57.2027" />
<path d="M-55.6307 57.2027 A5.5 3.17543 60 0 1 -48.9916 64.2112" />
<path d="M-56.0627 54.005 A1 0.57735 -120 0 0 -54.8556 55.2792" />
<path d="M-54.8556 55.2792 A1 0.57735 -120 1 0 -55.8556 53.5472" />
<path d="M-55.8556 53.5472 A1 0.57735 -120 0 0 -56.0627 54.005" />
<path d="M18.0463 40.0405 A11 6.35085 -60 0 1 15.6978 40.0083" />
<path id= "45" d=" M -53.2125 45.4464 L -49.4975 40.8248 " />
<path d="M-49.3285 65.8448 A5.5 3.17543 60 0 1 -54.4639 56.95" />
<path id= "47" d=" M -53.4764 25.9756 L -12.7279 2.44949 " />
<path id= "48" d=" M -49.4975 40.8248 L -12.7279 19.5959 " />
<path d="M-12.7279 2.44949 A10.5 6.06218 -60 0 1 -7.47792 1.92944" />
<path d="M-7.47792 1.92944 A10.5 6.06218 -60 0 1 -12.7279 19.5959" />
<path d="M-11.4905 10.3083 A1.75 1.01036 -60 0 1 -13.6029 12.5382" />
<path d="M-13.6029 12.5382 A1.75 1.01036 -60 0 1 -11.8529 9.50716" />
<path d="M-11.8529 9.50716 A1.75 1.01036 -60 0 1 -11.4905 10.3083" />
<path d="M20.3647 21.5555 A10.5 6.06218 -60 0 1 25.6147 21.0355" />
<path d="M25.6147 21.0355 A10.5 6.06218 -60 0 1 20.3647 38.7019" />
<path d="M23.5467 22.1679 A1 0.57735 -60 0 1 22.3395 23.4422" />
<path d="M22.3395 23.4422 A1 0.57735 -60 0 1 23.3395 21.7101" />
<path d="M23.3395 21.7101 A1 0.57735 -60 0 1 23.5467 22.1679" />
<path d="M24.2538 27.8834 A5.5 3.17543 -60 0 1 17.6147 34.8919" />
<path d="M17.6147 34.8919 A5.5 3.17543 -60 0 1 23.1147 25.3656" />
<path d="M23.1147 25.3656 A5.5 3.17543 -60 0 1 24.2538 27.8834" />
<path d="M23.5467 34.4153 A1 0.57735 -60 0 1 22.3395 35.6896" />
<path d="M22.3395 35.6896 A1 0.57735 -60 0 1 23.3395 33.9576" />
<path d="M23.3395 33.9576 A1 0.57735 -60 0 1 23.5467 34.4153" />
<path d="M15.8745 32.7211 A1 0.57735 -60 0 1 14.6674 33.9954" />
<path d="M14.6674 33.9954 A1 0.57735 -60 0 1 15.6674 32.2633" />
<path d="M15.6674 32.2633 A1 0.57735 -60 0 1 15.8745 32.7211" />
<path id= "68" d=" M -15.5563 0.816497 L -12.7279 2.44949 " />
<path id= "69" d=" M -15.5563 0.816497 L -56.3048 24.3426 " />
<path d="M-15.5563 0.816497 A10.5 6.06218 -60 0 1 -10.3063 0.296444" />
</g>
</g>



<g id="right foot"
   transform="rotate(60,200,620) translate(200,620) scale(2,2)"
  >
<g   stroke="rgb(0, 0, 0)"
   stroke-width="0.175"
   stroke-linecap="butt"
   stroke-linejoin="miter"
   fill="none"
   transform="scale(1,-1)"
  >
<path id= "1" d=" M 50.9619 57.2418 L 33.9914 67.0398 " />
<path id= "2" d=" M -22.6777 -45.8108 L -39.6482 -36.0129 " />
</g>
<g   stroke="rgb(0, 0, 0)"
   stroke-width="0.175"
   stroke-linecap="butt"
   stroke-linejoin="miter"
   fill="none"
   transform="scale(1,-1)"
  >
<path d="M22.086 -0.31259 A3 1.73205 -60 0 1 19.7132 0.556835" />
<path d="M19.7132 0.556835 A3 1.73205 -60 0 1 19.2798 -1.93278" />
<path id= "3" d=" M 11.3137 56.3383 L 25.4558 48.1733 " />
<path id= "4" d=" M 11.3137 53.8888 L 11.3137 56.3383 " />
<path id= "5" d=" M 11.3137 53.8888 L 13.435 52.664 " />
<path id= "6" d=" M 13.435 44.7672 L 13.435 52.664 " />
<path id= "7" d=" M 25.4558 -17.1464 L 25.4558 -8.98146 " />
<path id= "8" d=" M 25.4558 1.63299 L 25.4558 48.1733 " />
<path d="M16.2635 40.8248 A3 1.73205 -60 0 1 13.435 44.7672" />
<path id= "10" d=" M 11.3137 -8.98146 L 25.4558 -17.1464 " />
<path d="M13.435 40.1484 A3 1.73205 -60 0 1 15.6421 39.4515" />
<path d="M15.6421 39.4515 A3 1.73205 -60 0 1 16.2635 40.8248" />
<path id= "13" d=" M 11.3137 -8.98146 L 11.3137 -6.53197 " />
<path id= "14" d=" M 13.435 39.6001 L 13.435 40.1484 " />
<path id= "15" d=" M 11.3137 -6.53197 L 13.435 -7.75672 " />
<path id= "16" d=" M 13.435 39.6001 L 24.7487 33.0681 " />
<path id= "17" d=" M 13.435 -7.75672 L 13.435 0.140089 " />
<path id= "18" d=" M 24.7487 1.22474 L 24.7487 33.0681 " />
<path d="M13.435 0.140089 A3 1.73205 -60 0 1 15.6421 -0.556835" />
<path d="M15.6421 -0.556835 A3 1.73205 -60 0 1 16.2635 0.816497" />
<path id= "21" d=" M 13.435 5.30723 L 22.6274 8.88178e-016 " />
<path d="M16.2635 0.816497 A3 1.73205 -60 0 1 13.435 4.75889" />
<path id= "23" d=" M 13.435 4.75889 L 13.435 5.30723 " />
<path d="M23.3345 36.7423 A3 1.73205 -60 0 1 19.7132 40.5652" />
<path d="M19.7132 40.5652 A3 1.73205 -60 0 1 22.7132 35.369" />
<path d="M22.7132 35.369 A3 1.73205 -60 0 1 23.3345 36.7423" />
<path id= "27" d=" M 18.3848 60.4207 L 28.9914 66.5445 " />
<path id= "28" d=" M 25.4558 48.1733 L 30.4056 51.031 " />
<path id= "29" d=" M -18.0312 39.396 L 11.3137 56.3383 " />
<path id= "30" d=" M -23.6881 36.13 L -18.0312 32.864 " />
<path id= "31" d=" M -34.6482 29.8021 L -23.6881 36.13 " />
<path id= "32" d=" M -18.0312 -25.9238 L -18.0312 39.396 " />
<path id= "33" d=" M 11.3137 53.8888 L 9.19239 52.664 " />
<path id= "34" d=" M 9.19239 39.6001 L 9.19239 52.664 " />
<path id= "35" d=" M 9.19239 39.6001 L 6.01041 37.763 " />
<path id= "36" d=" M 6.01041 37.763 L 6.01041 43.4784 " />
<path id= "37" d=" M 6.01041 43.4784 L 3.18198 41.8454 " />
<path id= "38" d=" M 3.18198 36.13 L 3.18198 41.8454 " />
<path id= "39" d=" M 3.18198 36.13 L -10.6066 28.1691 " />
<path id= "40" d=" M -10.6066 28.1691 L -10.6066 41.2331 " />
<path id= "41" d=" M -10.6066 41.2331 L -14.8492 38.7836 " />
<path id= "42" d=" M -14.8492 25.7196 L -14.8492 38.7836 " />
<path id= "43" d=" M -14.8492 25.7196 L -15.2028 25.5155 " />
<path id= "44" d=" M -15.2028 -8.77734 L -15.2028 25.5155 " />
<path id= "45" d=" M 3.18198 1.83712 L -15.2028 -8.77734 " />
<path id= "46" d=" M 3.18198 -3.87836 L 3.18198 1.83712 " />
<path id= "47" d=" M 6.01041 -2.24537 L 3.18198 -3.87836 " />
<path id= "48" d=" M 6.01041 -2.24537 L 6.01041 3.47011 " />
<path id= "49" d=" M 9.19239 5.30723 L 6.01041 3.47011 " />
<path id= "50" d=" M 9.19239 -7.75672 L 9.19239 5.30723 " />
<path id= "51" d=" M 11.3137 -6.53197 L 9.19239 -7.75672 " />
<path id= "52" d=" M -18.0312 -25.9238 L 11.3137 -8.98146 " />
<path id= "53" d=" M 9.19239 52.664 L 13.435 52.664 " />
<path id= "54" d=" M 9.19239 39.6001 L 13.435 39.6001 " />
<path d="M13.435,44.7672 L13.3085,44.7401  L13.1835,44.7106  L13.0601,44.6789  L12.9386,44.6449  L12.8191,44.6087  L12.7015,44.5703  L12.5862,44.5298  L12.4732,44.4871  L12.3625,44.4424  L12.2544,44.3958  L12.1489,44.3471  L12.0461,44.2965  L11.9462,44.2441  L11.8492,44.1899 " /><path d="M11.8492,44.1899 L11.4497,43.9233  L11.1206,43.6265  L10.8687,43.3054  L10.6992,42.9668  L10.6156,42.6176  L10.6198,42.2651  L10.7115,41.9166  L10.8888,41.5793  L11.1482,41.2603  L11.4843,40.966  L11.89,40.7026  L12.357,40.4755  L12.8756,40.2895  L13.435,40.1484 " /><path d="M12.3037 40.4982 A3 1.73205 -60 0 1 10.6066 42.4578" />
<path id= "58" d=" M -17.6777 -45.3156 L 45.9619 -8.57321 " />
<path id= "59" d=" M 18.3848 -4.89898 L 28.9914 1.22474 " />
<path id= "60" d=" M 18.3848 -4.89898 L 32.5269 -13.0639 " />
<path id= "61" d=" M 25.4558 -17.1464 L 32.5269 -13.0639 " />
<path id= "62" d=" M -18.0312 -25.9238 L -3.88909 -34.0887 " />
<path id= "63" d=" M -9.54594 -37.3547 L -3.88909 -34.0887 " />
<path id= "64" d=" M -23.6881 -29.1898 L -9.54594 -37.3547 " />
<path id= "65" d=" M -34.6482 -35.5176 L -23.6881 -29.1898 " />
<path id= "66" d=" M 6.01041 37.763 L 19.4454 30.0062 " />
<path id= "67" d=" M 19.4454 30.0062 L 24.7487 33.0681 " />
<path id= "68" d=" M 9.19239 5.30723 L 13.435 5.30723 " />
<path d="M13.435,4.75889 L13.3085,4.73174  L13.1835,4.70228  L13.0601,4.67053  L12.9386,4.63654  L12.8191,4.60033  L12.7015,4.56195  L12.5862,4.52142  L12.4732,4.47879  L12.3625,4.43412  L12.2544,4.38743  L12.1489,4.33877  L12.0461,4.28821  L11.9462,4.23578  L11.8492,4.18154 " /><path d="M11.8492,4.18154 L11.4497,3.91501  L11.1206,3.61813  L10.8687,3.29705  L10.6992,2.95842  L10.6156,2.60926  L10.6198,2.25678  L10.7115,1.90829  L10.8888,1.57101  L11.1482,1.25193  L11.4843,0.957638  L11.89,0.694241  L12.357,0.467191  L12.8756,0.28119  L13.435,0.140089 " /><path id= "71" d=" M 16.617 28.3733 L 16.617 31.6392 " />
<path id= "72" d=" M -1.76777 17.7588 L 16.617 28.3733 " />
<path id= "73" d=" M -1.76777 -1.02062 L -1.76777 17.7588 " />
<path d="M12.3037 0.489898 A3 1.73205 -60 0 1 10.6066 2.44949" />
<path d="M28.9914 66.5445 A10 5.7735 -120 0 0 33.9914 67.0398" />
<path d="M33.9914 67.0398 A10 5.7735 -120 0 0 35.3663 65.5928" />
<path id= "77" d=" M 52.3369 55.7949 L 35.3663 65.5928 " />
<path d="M50.9619 57.2418 A10 5.7735 -120 0 0 52.3369 55.7949" />
<path id= "79" d=" M 18.3848 57.9713 L 32.5269 49.8063 " />
<path id= "80" d=" M 18.3848 57.9713 L 18.3848 60.4207 " />
<path id= "81" d=" M -23.6881 33.6805 L -18.0312 30.4145 " />
<path id= "82" d=" M -23.6881 33.6805 L -23.6881 36.13 " />
<path d="M-41.0232 21.4894 A10 5.7735 -120 0 0 -34.6482 29.8021" />
<path id= "84" d=" M 6.01041 40.2125 L 3.18198 41.8454 " />
<path id= "85" d=" M 3.18198 36.13 L 16.617 28.3733 " />
<path d="M14.3189 32.5578 A1.75 1.01036 -60 0 1 14.2673 32.9958" />
<path d="M11.8956 34.3651 A1.75 1.01036 -60 0 1 13.9565 31.7567" />
<path d="M13.9565 31.7567 A1.75 1.01036 -60 0 1 14.3189 32.5578" />
<path d="M7.24784 36.6403 A1.75 1.01036 -60 0 1 7.19626 37.0783" />
<path d="M6.01041 38.7836 A1.75 1.01036 -60 0 1 5.13541 38.8703" />
<path d="M5.13541 38.8703 A1.75 1.01036 -60 0 1 6.88541 35.8392" />
<path d="M6.88541 35.8392 A1.75 1.01036 -60 0 1 7.24784 36.6403" />
<path id= "93" d=" M -10.6066 28.1691 L -0.707107 22.4537 " />
<path id= "94" d=" M -4.94975 20.0042 L -0.707107 22.4537 " />
<path id= "95" d=" M -14.8492 25.7196 L -4.94975 20.0042 " />
<path id= "96" d=" M -1.76777 17.7588 L -15.2028 25.5155 " />
<path id= "97" d=" M -1.06066 32.864 L 1.06066 34.0887 " />
<path id= "98" d=" M -1.06066 32.864 L 3.18198 30.4145 " />
<path id= "99" d=" M 1.06066 34.0887 L 5.3033 31.6392 " />
<path id= "100" d=" M 3.18198 30.4145 L 5.3033 31.6392 " />
<path id= "101" d=" M 6.01041 28.7815 L 8.13173 30.0062 " />
<path id= "102" d=" M 6.01041 28.7815 L 10.253 26.332 " />
<path id= "103" d=" M 8.13173 30.0062 L 12.3744 27.5568 " />
<path id= "104" d=" M 10.253 26.332 L 12.3744 27.5568 " />
<path id= "105" d=" M -10.6066 36.3341 L -14.8492 38.7836 " />
<path id= "106" d=" M -4.94975 20.0042 L -4.94975 24.9031 " />
<path d="M-6.89429 11.3289 A2.75 1.58771 -60 0 1 -10.2138 14.8331" />
<path d="M-10.2138 14.8331 A2.75 1.58771 -60 0 1 -7.46383 10.07" />
<path d="M-7.46383 10.07 A2.75 1.58771 -60 0 1 -6.89429 11.3289" />
<path id= "110" d=" M 3.18198 1.83712 L 6.01041 0.204124 " />
<path d="M6.01041 -1.22474 A1.75 1.01036 -60 0 1 5.13541 -1.13807" />
<path d="M5.13541 -1.13807 A1.75 1.01036 -60 0 1 4.97667 -2.84219" />
<path id= "113" d=" M 32.5269 49.8063 L 33.9411 50.6228 " />
<path id= "114" d=" M 26.8701 62.8702 L 18.3848 57.9713 " />
<path d="M33.9411 58.7878 A10 5.7735 60 0 1 31.8701 63.3655" />
<path d="M31.8701 63.3655 A10 5.7735 60 0 1 26.8701 62.8702" />
<path id= "117" d=" M 33.9411 14.6969 L 33.9411 58.7878 " />
<path d="M26.8701 2.44949 A10 5.7735 60 0 1 33.9411 14.6969" />
<path id= "119" d=" M 26.8701 2.44949 L 18.3848 -2.44949 " />
<path id= "120" d=" M 18.3848 -4.89898 L 18.3848 -2.44949 " />
<path d="M28.9914 1.22474 A10 5.7735 60 0 1 35.3663 9.53749" />
<path id= "122" d=" M 52.3369 -0.260464 L 35.3663 9.53749 " />
<path d="M45.9619 -8.57321 A10 5.7735 60 0 1 52.3369 -0.260464" />
<path id= "124" d=" M -23.6881 -29.1898 L -23.6881 -26.7403 " />
<path id= "125" d=" M -23.6881 -26.7403 L -9.54594 -34.9052 " />
<path id= "126" d=" M -9.54594 -37.3547 L -9.54594 -34.9052 " />
<path d="M-41.0232 -34.566 A10 5.7735 60 0 1 -39.6482 -36.0129" />
<path d="M-39.6482 -36.0129 A10 5.7735 60 0 1 -34.6482 -35.5176" />
<path d="M-22.6777 -45.8108 A10 5.7735 60 0 1 -17.6777 -45.3156" />
<path d="M35.3663 9.53749 A64 36.9504 60 0 1 35.3663 65.5928" />
<path d="M52.3369 -0.260464 A64 36.9504 60 0 1 52.3369 55.7949" />
<path d="M-9.36916 10.7165 A1.75 1.01036 -60 0 1 -10.7085 12.9138" />
<path d="M-9.37336 10.6013 A1.75 1.01036 -60 0 1 -9.36916 10.7165" />
<path id= "134" d=" M -23.6881 33.6805 L -32.5269 28.5774 " />
<path id= "135" d=" M -18.3848 20.4124 L -18.0312 20.6165 " />
<path d="M-18.3848 20.4124 A10 5.7735 60 0 1 -25.4558 8.16497" />
<path d="M-32.5269 28.5774 A10 5.7735 60 0 1 -39.598 16.3299" />
<path id= "138" d=" M -39.598 -27.7609 L -39.598 16.3299 " />
<path id= "139" d=" M -25.4558 -27.7609 L -25.4558 8.16497 " />
<path d="M-32.5269 -31.8434 A10 5.7735 -120 0 0 -37.5269 -32.3387" />
<path d="M-37.5269 -32.3387 A10 5.7735 -120 0 0 -39.598 -27.7609" />
<path id= "142" d=" M -23.6881 -26.7403 L -32.5269 -31.8434 " />
<path d="M-41.0232 21.4894 A64 36.9504 60 0 1 -41.0232 -34.566" />
<path id= "144" d=" M 3.18198 30.4145 L 3.18198 32.864 " />
<path d="M0.38048 33.696 A1.75 1.01036 -60 0 1 1.93566 32.9814" />
<path d="M1.93566 32.9814 A1.75 1.01036 -60 0 1 2.24651 33.4041" />
<path id= "147" d=" M 5.3033 37.3547 L 4.82455 37.6311 " />
<path id= "148" d=" M 5.3033 36.5904 L 5.3033 37.3547 " />
<path id= "149" d=" M 10.253 26.332 L 10.253 28.7815 " />
<path d="M7.45155 29.6135 A1.75 1.01036 -60 0 1 9.00673 28.899" />
<path d="M9.00673 28.899 A1.75 1.01036 -60 0 1 9.31758 29.3216" />
<path id= "152" d=" M 12.3744 33.2722 L 11.8956 33.5486 " />
<path id= "153" d=" M 12.3744 32.5079 L 12.3744 33.2722 " />
<path d="M-8.66206 10.3083 A2.75 1.58771 -60 0 1 -10.776 13.7656" />
<path d="M-8.66945 10.1169 A2.75 1.58771 -60 0 1 -8.66206 10.3083" />
</g>
</g>



<g id="left leg"
   transform="rotate(60,300,460) translate(300,460) scale(2,2)"
  >
<g   stroke="rgb(0, 0, 0)"
   stroke-width="0.175"
   stroke-linecap="butt"
   stroke-linejoin="miter"
   fill="none"
   transform="scale(1,-1)"
  >
<path id= "1" d=" M 23.6348 82.7626 L 25.6147 83.9057 " />
<path id= "2" d=" M -10.3063 63.1667 L -7.47792 64.7997 " />
</g>
<g   stroke="rgb(0, 0, 0)"
   stroke-width="0.175"
   stroke-linecap="butt"
   stroke-linejoin="miter"
   fill="none"
   transform="scale(1,-1)"
  >
<path id= "1" d=" M -14.8492 106.553 L -29.5462 105.24 " />
<path id= "2" d=" M -46.4611 95.4743 L -29.5462 105.24 " />
<path d="M-46.4611,95.4743 L-46.4393,95.4831  L-46.4175,95.492  L-46.3956,95.5008  L-46.3737,95.5096  L-46.3518,95.5185  L-46.3299,95.5273  L-46.3079,95.5361  L-46.2858,95.5449  L-46.2638,95.5538  L-46.2416,95.5626  L-46.2195,95.5714  L-46.1973,95.5802  L-46.1751,95.5891  L-46.1528,95.5979 " /><path id= "4" d=" M -46.1528 95.5979 L -32.9703 103.209 " />
<path id= "5" d=" M -32.9703 103.209 L -18.3848 104.512 " />
<path id= "6" d=" M -18.3848 104.512 L -14.8492 106.553 " />
<path id= "7" d=" M 19.6019 103.809 L -18.8281 125.996 " />
<path id= "8" d=" M -18.8281 125.996 L -33.5251 124.684 " />
<path id= "9" d=" M -33.5251 124.684 L -33.7888 124.836 " />
<path id= "10" d=" M -33.7888 124.836 L -33.7888 107.69 " />
<path id= "11" d=" M -29.5462 105.24 L -33.7888 107.69 " />
<path id= "12" d=" M -29.5462 105.24 L -29.5462 105.24 " />
<path id= "13" d=" M 19.6019 86.6624 L -14.8492 106.553 " />
<path d="M19.6019 86.6624 A11 6.35085 120 0 0 16.4203 103.423" />
<path d="M16.4203 103.423 A11 6.35085 120 0 0 19.6019 103.809" />
<path d="M-46.4611 95.4743 A11 6.35085 60 0 1 -46.4611 95.4743" />
<path id= "17" d=" M -46.4611 95.4743 L -29.5462 105.24 " />
<path id= "18" d=" M -53.3715 94.1099 L -51.0979 92.7972 " />
<path d="M-51.0979 92.7972 A11 6.35085 60 0 1 -51.0979 92.7972" />
<path d="M-51.1833,92.6936 L-51.1775,92.7009  L-51.1717,92.7083  L-51.1659,92.7156  L-51.16,92.723  L-51.154,92.7304  L-51.148,92.7378  L-51.1419,92.7452  L-51.1358,92.7526  L-51.1296,92.76  L-51.1234,92.7674  L-51.1171,92.7749  L-51.1108,92.7823  L-51.1044,92.7898  L-51.0979,92.7972 " /><path id= "21" d=" M -48.7347 96.787 L -46.4611 95.4743 " />
<path id= "22" d=" M -64.083 85.2459 L -51.1833 92.6936 " />
<path id= "23" d=" M -18.3848 104.512 L 18.3848 83.2827 " />
<path d="M23.6348 82.7626 A10.5 6.06218 120 0 0 18.3848 83.2827" />
<path d="M22.2739 89.6105 A5.5 3.17543 120 0 0 21.9404 87.9836" />
<path d="M16.8091 96.8712 A5.5 3.17543 120 0 0 22.2739 89.6105" />
<path id= "27" d=" M 18.3848 83.2827 L 20.3647 84.4257 " />
<path id= "28" d=" M 18.0463 85.7643 L 20.3647 84.4257 " />
<path id= "29" d=" M 18.0463 85.7643 L 19.6019 86.6624 " />
<path id= "30" d=" M 18.0463 102.911 L 20.3647 101.572 " />
<path id= "31" d=" M 18.0463 102.911 L 19.6019 103.809 " />
<path id= "32" d=" M -53.4805 105.992 L -53.4764 105.992 " />
<path id= "33" d=" M -71.2655 103.199 L -33.7888 124.836 " />
<path id= "34" d=" M -71.2655 103.199 L -71.2655 86.0525 " />
<path id= "35" d=" M -71.2655 86.0525 L -33.7888 107.69 " />
<path d="M-56.0627 97.2793 A1 0.57735 60 0 1 -55.8556 96.8215" />
<path d="M-55.8556 96.8215 A1 0.57735 60 0 1 -54.8556 98.5536" />
<path d="M-54.8556 98.5536 A1 0.57735 60 0 1 -56.0627 97.2793" />
<path d="M-48.3906 107.832 A1 0.57735 60 0 1 -48.1835 107.375" />
<path d="M-48.1835 107.375 A1 0.57735 60 0 1 -47.1835 109.107" />
<path d="M-47.1835 109.107 A1 0.57735 60 0 1 -48.3906 107.832" />
<path d="M-48.9916 107.485 A5.5 3.17543 -120 0 0 -55.6307 100.477" />
<path d="M-55.6307 100.477 A5.5 3.17543 -120 0 0 -50.1307 110.003" />
<path d="M-50.1307 110.003 A5.5 3.17543 -120 0 0 -48.9916 107.485" />
<path d="M-56.0627 109.527 A1 0.57735 60 0 1 -55.8556 109.069" />
<path d="M-55.8556 109.069 A1 0.57735 60 0 1 -54.8556 110.801" />
<path d="M-54.8556 110.801 A1 0.57735 60 0 1 -56.0627 109.527" />
<path id= "48" d=" M -67.0228 83.603 L -71.2655 86.0525 " />
<path id= "49" d=" M -67.0228 83.603 L -51.0979 92.7972 " />
<path id= "50" d=" M -48.7347 96.787 L -53.3715 94.1099 " />
<path d="M15.6978 102.879 A11 6.35085 120 0 0 18.0463 102.911" />
<path id= "52" d=" M -67.0228 83.603 L -51.0979 92.7972 " />
<path id= "53" d=" M -52.3259 84.9156 L -67.0228 83.603 " />
<path id= "54" d=" M -52.3259 84.9156 L -49.4975 86.5486 " />
<path id= "55" d=" M -64.083 85.2459 L -49.4975 86.5486 " />
<path d="M-54.4639 100.224 A5.5 3.17543 -120 0 0 -49.3285 109.119" />
<path id= "57" d=" M -53.4764 105.992 L -49.9596 103.962 " />
<path id= "58" d=" M -40.8128 98.681 L -12.7279 82.4662 " />
<path id= "59" d=" M -49.4975 86.5486 L -12.7279 65.3197 " />
<path d="M-12.7279 82.4662 A10.5 6.06218 120 0 0 -7.47792 64.7997" />
<path d="M-7.47792 64.7997 A10.5 6.06218 120 0 0 -12.7279 65.3197" />
<path d="M-11.4905 73.1785 A1.75 1.01036 120 0 0 -11.8529 72.3774" />
<path d="M-11.8529 72.3774 A1.75 1.01036 120 1 0 -13.6029 75.4085" />
<path d="M-13.6029 75.4085 A1.75 1.01036 120 0 0 -11.4905 73.1785" />
<path d="M20.3647 101.572 A10.5 6.06218 120 0 0 25.6147 83.9057" />
<path d="M25.6147 83.9057 A10.5 6.06218 120 0 0 20.3647 84.4257" />
<path d="M23.5467 97.2856 A1 0.57735 120 0 0 23.3395 96.8278" />
<path d="M23.3395 96.8278 A1 0.57735 120 1 0 22.3395 98.5598" />
<path d="M22.3395 98.5598 A1 0.57735 120 0 0 23.5467 97.2856" />
<path d="M24.2538 90.7536 A5.5 3.17543 120 0 0 23.1147 88.2358" />
<path d="M23.1147 88.2358 A5.5 3.17543 120 1 0 17.6147 97.7621" />
<path d="M17.6147 97.7621 A5.5 3.17543 120 0 0 24.2538 90.7536" />
<path d="M23.5467 85.0381 A1 0.57735 120 0 0 23.3395 84.5803" />
<path d="M23.3395 84.5803 A1 0.57735 120 1 0 22.3395 86.3124" />
<path d="M22.3395 86.3124 A1 0.57735 120 0 0 23.5467 85.0381" />
<path d="M15.8745 95.5913 A1 0.57735 120 0 0 15.6674 95.1336" />
<path d="M15.6674 95.1336 A1 0.57735 120 1 0 14.6674 96.8656" />
<path d="M14.6674 96.8656 A1 0.57735 120 0 0 15.8745 95.5913" />
<path d="M-10.3063 63.1667 A10.5 6.06218 120 0 0 -15.5563 63.6867" />
<path id= "80" d=" M -15.5563 63.6867 L -52.3259 84.9156 " />
<path id= "81" d=" M -15.5563 63.6867 L -12.7279 65.3197 " />
</g>
</g>



<g id="left foot"
   transform="rotate(60,300,580) translate(300,580) scale(2,2)"
  >
<g   stroke="rgb(0, 0, 0)"
   stroke-width="0.175"
   stroke-linecap="butt"
   stroke-linejoin="miter"
   fill="none"
   transform="scale(1,-1)"
  >
<path id= "1" d=" M -22.6777 32.5728 L -39.6482 42.3708 " />
<path id= "2" d=" M 50.9619 135.625 L 33.9914 145.423 " />
</g>
<g   stroke="rgb(0, 0, 0)"
   stroke-width="0.175"
   stroke-linecap="butt"
   stroke-linejoin="miter"
   fill="none"
   transform="scale(1,-1)"
  >
<path d="M23.3345 115.126 A3 1.73205 120 0 0 22.7132 113.753" />
<path d="M22.7132 113.753 A3 1.73205 120 0 0 19.7132 118.949" />
<path d="M19.7132 118.949 A3 1.73205 120 0 0 23.3345 115.126" />
<path id= "4" d=" M 11.3137 69.4022 L 25.4558 61.2372 " />
<path id= "5" d=" M 11.3137 71.8517 L 11.3137 69.4022 " />
<path id= "6" d=" M 11.3137 71.8517 L 13.435 70.627 " />
<path id= "7" d=" M 13.435 78.5238 L 13.435 70.627 " />
<path id= "8" d=" M 25.4558 126.557 L 25.4558 80.0167 " />
<path id= "9" d=" M 25.4558 69.4022 L 25.4558 61.2372 " />
<path d="M16.2635 79.2002 A3 1.73205 120 0 0 15.6421 77.8268" />
<path d="M15.6421 77.8268 A3 1.73205 120 0 0 13.435 78.5238" />
<path id= "12" d=" M 11.3137 134.722 L 25.4558 126.557 " />
<path d="M13.435 83.1426 A3 1.73205 120 0 0 16.2635 79.2002" />
<path id= "14" d=" M 11.3137 134.722 L 11.3137 132.272 " />
<path id= "15" d=" M 13.435 83.6909 L 13.435 83.1426 " />
<path id= "16" d=" M 11.3137 132.272 L 13.435 131.048 " />
<path id= "17" d=" M 13.435 83.6909 L 22.6274 78.3837 " />
<path id= "18" d=" M 13.435 131.048 L 13.435 123.151 " />
<path id= "19" d=" M 24.7487 111.452 L 24.7487 79.6084 " />
<path d="M13.435 123.151 A3 1.73205 120 0 0 16.2635 119.209" />
<path id= "21" d=" M 13.435 117.984 L 24.7487 111.452 " />
<path d="M16.2635 119.209 A3 1.73205 120 0 0 15.6421 117.835" />
<path d="M15.6421 117.835 A3 1.73205 120 0 0 13.435 118.532" />
<path id= "24" d=" M 13.435 118.532 L 13.435 117.984 " />
<path d="M19.2798 76.4509 A3 1.73205 120 0 0 19.7132 78.9405" />
<path d="M19.7132 78.9405 A3 1.73205 120 0 0 22.086 78.0711" />
<path id= "27" d=" M -17.6777 33.0681 L 45.9619 69.8105 " />
<path id= "28" d=" M 18.3848 73.4847 L 28.9914 79.6084 " />
<path id= "29" d=" M 18.3848 73.4847 L 32.5269 65.3197 " />
<path id= "30" d=" M 25.4558 61.2372 L 32.5269 65.3197 " />
<path id= "31" d=" M -18.0312 52.4599 L 11.3137 69.4022 " />
<path id= "32" d=" M -18.0312 52.4599 L -3.88909 44.2949 " />
<path id= "33" d=" M -9.54594 41.029 L -3.88909 44.2949 " />
<path id= "34" d=" M -23.6881 49.1939 L -9.54594 41.029 " />
<path id= "35" d=" M -34.6482 42.8661 L -23.6881 49.1939 " />
<path id= "36" d=" M -18.0312 117.78 L -18.0312 52.4599 " />
<path id= "37" d=" M 11.3137 71.8517 L 9.19239 70.627 " />
<path id= "38" d=" M 9.19239 83.6909 L 9.19239 70.627 " />
<path id= "39" d=" M 9.19239 83.6909 L 6.01041 81.8538 " />
<path id= "40" d=" M 6.01041 81.8538 L 6.01041 76.1383 " />
<path id= "41" d=" M 6.01041 76.1383 L 3.18198 74.5053 " />
<path id= "42" d=" M 3.18198 80.2208 L 3.18198 74.5053 " />
<path id= "43" d=" M 3.18198 80.2208 L -10.6066 72.2599 " />
<path id= "44" d=" M -10.6066 72.2599 L -10.6066 59.196 " />
<path id= "45" d=" M -10.6066 59.196 L -14.8492 56.7465 " />
<path id= "46" d=" M -14.8492 69.8105 L -14.8492 56.7465 " />
<path id= "47" d=" M -14.8492 69.8105 L -15.2028 69.6063 " />
<path id= "48" d=" M -15.2028 103.899 L -15.2028 69.6063 " />
<path id= "49" d=" M 3.18198 114.514 L -15.2028 103.899 " />
<path id= "50" d=" M 3.18198 120.229 L 3.18198 114.514 " />
<path id= "51" d=" M 6.01041 121.862 L 3.18198 120.229 " />
<path id= "52" d=" M 6.01041 121.862 L 6.01041 116.147 " />
<path id= "53" d=" M 9.19239 117.984 L 6.01041 116.147 " />
<path id= "54" d=" M 9.19239 131.048 L 9.19239 117.984 " />
<path id= "55" d=" M 11.3137 132.272 L 9.19239 131.048 " />
<path id= "56" d=" M -18.0312 117.78 L 11.3137 134.722 " />
<path id= "57" d=" M 9.19239 83.6909 L 13.435 83.6909 " />
<path d="M13.435,78.5238 L12.8756,78.6649  L12.357,78.8509  L11.89,79.0779  L11.4843,79.3413  L11.1482,79.6356  L10.8888,79.9547  L10.7115,80.292  L10.6198,80.6405  L10.6156,80.9929  L10.6992,81.3421  L10.8687,81.6807  L11.1206,82.0018  L11.4497,82.2987  L11.8492,82.5652 " /><path d="M11.8492,82.5652 L11.9462,82.6194  L12.0461,82.6719  L12.1489,82.7224  L12.2544,82.7711  L12.3625,82.8178  L12.4732,82.8625  L12.5862,82.9051  L12.7015,82.9456  L12.8191,82.984  L12.9386,83.0202  L13.0601,83.0542  L13.1835,83.0859  L13.3085,83.1154  L13.435,83.1426 " /><path d="M10.6066 80.8332 A3 1.73205 120 0 0 12.3037 78.8736" />
<path id= "61" d=" M 18.3848 138.804 L 28.9914 144.928 " />
<path id= "62" d=" M 25.4558 126.557 L 30.4056 129.415 " />
<path id= "63" d=" M -23.6881 114.514 L -18.0312 111.248 " />
<path id= "64" d=" M -34.6482 108.186 L -23.6881 114.514 " />
<path id= "65" d=" M 9.19239 131.048 L 13.435 131.048 " />
<path id= "66" d=" M 9.19239 117.984 L 13.435 117.984 " />
<path d="M13.435,118.532 L12.8756,118.673  L12.357,118.859  L11.89,119.086  L11.4843,119.35  L11.1482,119.644  L10.8888,119.963  L10.7115,120.3  L10.6198,120.649  L10.6156,121.001  L10.6992,121.35  L10.8687,121.689  L11.1206,122.01  L11.4497,122.307  L11.8492,122.574 " /><path d="M11.8492,122.574 L11.9462,122.628  L12.0461,122.68  L12.1489,122.731  L12.2544,122.779  L12.3625,122.826  L12.4732,122.871  L12.5862,122.913  L12.7015,122.954  L12.8191,122.992  L12.9386,123.029  L13.0601,123.063  L13.1835,123.094  L13.3085,123.124  L13.435,123.151 " /><path id= "69" d=" M 19.4454 108.39 L 24.7487 111.452 " />
<path id= "70" d=" M -1.76777 96.1425 L -1.76777 77.3631 " />
<path id= "71" d=" M 16.617 110.023 L 16.617 106.757 " />
<path id= "72" d=" M -1.76777 96.1425 L 16.617 106.757 " />
<path d="M10.6066 120.841 A3 1.73205 120 0 0 12.3037 118.882" />
<path id= "74" d=" M 6.01041 116.147 L 19.4454 108.39 " />
<path d="M28.9914 79.6084 A10 5.7735 60 0 1 35.3663 87.9212" />
<path id= "76" d=" M 52.3369 78.1232 L 35.3663 87.9212 " />
<path d="M45.9619 69.8105 A10 5.7735 60 0 1 52.3369 78.1232" />
<path id= "78" d=" M 18.3848 75.9342 L 18.3848 73.4847 " />
<path id= "79" d=" M -9.54594 43.4784 L -9.54594 41.029 " />
<path id= "80" d=" M -23.6881 51.6434 L -9.54594 43.4784 " />
<path id= "81" d=" M -23.6881 51.6434 L -23.6881 49.1939 " />
<path d="M-41.0232 43.8177 A10 5.7735 60 0 1 -39.6482 42.3708" />
<path d="M-39.6482 42.3708 A10 5.7735 60 0 1 -34.6482 42.8661" />
<path d="M-22.6777 32.5728 A10 5.7735 60 0 1 -17.6777 33.0681" />
<path id= "85" d=" M 3.18198 80.2208 L 6.01041 78.5878 " />
<path d="M4.97667 75.5415 A1.75 1.01036 120 0 0 5.13541 77.2456" />
<path d="M5.13541 77.2456 A1.75 1.01036 120 0 0 6.01041 77.1589" />
<path id= "88" d=" M -14.8492 69.8105 L -10.6066 67.361 " />
<path id= "89" d=" M -1.76777 96.1425 L -15.2028 103.899 " />
<path d="M-9.00822 73.1828 A2.75 1.58771 120 0 0 -10.2138 77.7034" />
<path d="M-10.2138 77.7034 A2.75 1.58771 120 0 0 -6.90168 74.399" />
<path id= "92" d=" M 3.18198 114.514 L 16.617 106.757 " />
<path id= "93" d=" M 6.01041 107.165 L 8.13173 108.39 " />
<path id= "94" d=" M 8.13173 108.39 L 12.3744 105.94 " />
<path id= "95" d=" M 10.253 104.716 L 12.3744 105.94 " />
<path id= "96" d=" M 6.01041 107.165 L 10.253 104.716 " />
<path id= "97" d=" M -1.06066 111.248 L 1.06066 112.472 " />
<path id= "98" d=" M -1.06066 111.248 L 3.18198 108.798 " />
<path id= "99" d=" M 1.06066 112.472 L 5.3033 110.023 " />
<path id= "100" d=" M 3.18198 108.798 L 5.3033 110.023 " />
<path id= "101" d=" M 6.01041 118.596 L 3.18198 120.229 " />
<path d="M14.3189 110.941 A1.75 1.01036 120 0 0 13.9565 110.14" />
<path d="M13.9565 110.14 A1.75 1.01036 120 0 0 11.8956 112.749" />
<path d="M14.2673 111.38 A1.75 1.01036 120 0 0 14.3189 110.941" />
<path d="M7.24784 115.024 A1.75 1.01036 120 0 0 6.88541 114.223" />
<path d="M6.88541 114.223 A1.75 1.01036 120 0 0 5.13541 117.254" />
<path d="M5.13541 117.254 A1.75 1.01036 120 0 0 6.01041 117.167" />
<path d="M7.19626 115.462 A1.75 1.01036 120 0 0 7.24784 115.024" />
<path id= "109" d=" M 26.8701 80.8332 L 18.3848 75.9342 " />
<path d="M33.9411 93.0806 A10 5.7735 -120 0 0 26.8701 80.8332" />
<path id= "111" d=" M 33.9411 137.171 L 33.9411 93.0806 " />
<path d="M26.8701 141.254 A10 5.7735 -120 0 0 31.8701 141.749" />
<path d="M31.8701 141.749 A10 5.7735 -120 0 0 33.9411 137.171" />
<path id= "114" d=" M 32.5269 128.19 L 33.9411 129.006 " />
<path id= "115" d=" M 26.8701 141.254 L 18.3848 136.355 " />
<path id= "116" d=" M 18.3848 136.355 L 32.5269 128.19 " />
<path id= "117" d=" M 18.3848 138.804 L 18.3848 136.355 " />
<path d="M28.9914 144.928 A10 5.7735 -120 0 0 33.9914 145.423" />
<path d="M33.9914 145.423 A10 5.7735 -120 0 0 35.3663 143.977" />
<path id= "120" d=" M 52.3369 134.179 L 35.3663 143.977 " />
<path d="M50.9619 135.625 A10 5.7735 -120 0 0 52.3369 134.179" />
<path id= "122" d=" M -23.6881 114.514 L -23.6881 112.064 " />
<path id= "123" d=" M -23.6881 112.064 L -18.0312 108.798 " />
<path d="M-41.0232 99.873 A10 5.7735 -120 0 0 -34.6482 108.186" />
<path d="M35.3663 143.977 A64 36.9504 -120 0 0 35.3663 87.9212" />
<path d="M52.3369 134.179 A64 36.9504 -120 0 0 52.3369 78.1232" />
<path d="M-9.36916 73.5868 A1.75 1.01036 120 0 0 -9.37336 73.4716" />
<path d="M-10.7085 75.784 A1.75 1.01036 120 0 0 -9.36916 73.5868" />
<path id= "129" d=" M -23.6881 51.6434 L -32.5269 46.5403 " />
<path d="M-32.5269 46.5403 A10 5.7735 -120 0 0 -37.5269 46.045" />
<path d="M-37.5269 46.045 A10 5.7735 -120 0 0 -39.598 50.6228" />
<path id= "132" d=" M -39.598 94.7136 L -39.598 50.6228 " />
<path id= "133" d=" M -25.4558 86.5486 L -25.4558 50.6228 " />
<path d="M-18.3848 98.7961 A10 5.7735 60 0 1 -25.4558 86.5486" />
<path d="M-32.5269 106.961 A10 5.7735 60 0 1 -39.598 94.7136" />
<path id= "136" d=" M -23.6881 112.064 L -32.5269 106.961 " />
<path id= "137" d=" M -18.3848 98.7961 L -18.0312 99.0002 " />
<path d="M-41.0232 43.8177 A64 36.9504 -120 0 0 -41.0232 99.873" />
<path d="M-10.776 76.6358 A2.75 1.58771 120 0 0 -8.66945 73.3784" />
<path id= "140" d=" M 12.3744 111.656 L 11.8956 111.932 " />
<path id= "141" d=" M 12.3744 111.656 L 12.3744 110.892 " />
<path id= "142" d=" M 10.253 107.165 L 10.253 104.716 " />
<path d="M9.31758 107.705 A1.75 1.01036 120 0 0 9.00673 107.283" />
<path d="M9.00673 107.283 A1.75 1.01036 120 0 0 7.45155 107.997" />
<path id= "145" d=" M 3.18198 111.248 L 3.18198 108.798 " />
<path d="M2.24651 111.788 A1.75 1.01036 120 0 0 1.93566 111.365" />
<path d="M1.93566 111.365 A1.75 1.01036 120 0 0 0.38048 112.08" />
<path id= "148" d=" M 5.3033 115.738 L 4.82455 116.015 " />
<path id= "149" d=" M 5.3033 115.738 L 5.3033 114.974 " />
</g>
</g>



</svg>

