<?xml version="1.0" encoding="UTF-8"?>

<svg xmlns="http://www.w3.org/2000/svg" version="1.1"
	width="841mm"
	height="1189mm"
	viewBox="0 0 841 1189">
	<!-- Working space 0 0 841 1189 -->
	<defs>
		<radialGradient
			id="radialGradient3661"
			gradientUnits="userSpaceOnUse"
			cy="29.149"
			cx="282.65"
			gradientTransform="matrix(.14777 .23089 -.24680 .15795 -26.318 -62.617)"
			r="19.571">
				<stop stop-color="#71b2f8" offset="0"/>
				<stop stop-color="#002795" offset="1"/>
		</radialGradient>
		<radialGradient
			id="radialGradient3817"
			gradientUnits="userSpaceOnUse"
			cy="33.9"
			cx="270.58"
			gradientTransform="matrix(.26631 .065024 -.17931 .73438 -60.668 -36.938)"
			r="19.571">
				<stop stop-color="#ff6d0f" offset="0"/>
				<stop stop-color="#ff1000" offset="1"/>
		</radialGradient>
	</defs>
	<!-- Set display:none to hide FreeCAD Logo -->
	<g
		style="display:inline"
		id="freecad-logo"
		transform="translate(783, 1134) scale(3)"
		fill-rule="evenodd"
		stroke-width=".45621">
		<path d="m0.22811 0.22835v13.256h2.9558v-5.1876h2.09v-2.0452h-2.09v-2.2075h5.1486v-3.8087l-8.1044-0.0075z"
			stroke="#370700"
			fill="url(#radialGradient3817)"/>
		<path d="m13.386 4.1792-1.7193 0.98645-0.75925-0.26348-0.72439-1.8513-1.1395 0.05988-0.51976 1.9144-0.72743 0.34835-1.8143-0.79367-0.76632 0.85156 0.98645 1.7193-0.26957 0.75702-1.8513 0.72439 0.065967 1.1417 1.9144 0.51976 0.34835 0.72743-0.79976 1.8121 0.85156 0.76632 1.7193-0.98645 0.76311 0.27179 0.7183 1.8491 1.1478-0.06375 0.51367-1.9166 0.72743-0.34835 1.8182 0.80198 0.76632-0.85156-0.98645-1.7193 0.2657-0.76533 1.8491-0.7183-0.05766-1.1456-1.9166-0.51367-0.34835-0.72743 0.7959-1.8204-0.85156-0.76632zm-2.5751 2.8195 0.35295 0.20478 0.30579 0.27725 0.24481 0.33087 0.17611 0.36787 0.10354 0.39656 0.01715 0.4064-0.0587 0.4063-0.13396 0.38571-0.2131 0.35681-0.26894 0.30192-0.33087 0.24481-0.36787 0.17611-0.39656 0.10354-0.40863 0.02325-0.4063-0.0587-0.38571-0.13396-0.35681-0.2131-0.2997-0.27503-0.24703-0.32478-0.17611-0.36787-0.10132-0.40264-0.02324-0.40863 0.05869-0.4063 0.13396-0.38571 0.21087-0.35072 0.27116-0.30801 0.33087-0.24481 0.36787-0.17611 0.40264-0.10132 0.40641-0.01715 0.4063 0.05869 0.38571 0.13396z" 
		stroke="#000137"
		fill="url(#radialGradient3661)"/>
	</g>
<g id="head"
   transform="rotate(60,300,590) translate(300,590) scale(2,2)"
  >
<g   stroke="rgb(0, 0, 0)"
   stroke-width="0.175"
   stroke-linecap="butt"
   stroke-linejoin="miter"
   fill="none"
   transform="scale(1,-1)"
  >
<path d="M-225.572 160.014 A35 35 0 1 1 -169.818 192.857" /><path d="M-179.219 197.919 A35 35 0 0 1 -219.82 184.674" /><path d="M-179.093,184.154 L-178.92,184.009  L-178.748,183.867  L-178.712,183.837 " /><path d="M-179.093,184.154 L-178.92,184.009  L-178.748,183.867  L-178.712,183.837 " /><path d="M-179.093,184.154 L-178.92,184.009  L-178.748,183.867  L-178.712,183.837 " /><path d="M-164.423,178.1 L-164.39,178.113 " /><path d="M-201.992,191.221 C-203.356,191.093 -204.788,190.893 -206.311,190.586  C-207.833,190.278 -209.447,189.863 -211.175,189.266  C-212.423,188.832 -213.732,188.306 -215.083,187.632  C-216.431,186.962 -217.821,186.144 -219.112,185.206  C-220.014,184.553 -220.854,183.853 -221.596,183.15  C-222.341,182.447 -222.989,181.741 -223.553,181.052  C-224.693,179.656 -225.5,178.326 -226.115,177.066  C-226.787,175.679 -227.224,174.371 -227.515,173.127  C-227.853,171.675 -227.989,170.309 -227.99,169.015 " /><path d="M-227.99,169.015 C-227.99,167.529 -227.806,166.003 -227.41,164.473  C-227.007,162.916 -226.384,161.356 -225.527,159.848 " /><path d="M-182.919 197.568 A16 16 0 0 1 -185.665 198.825" /><path d="M-204.179 137.199 A16 16 0 0 1 -177.659 137.199" /></g>
<g   stroke="rgb(0, 0, 0)"
   stroke-width="0.175"
   stroke-linecap="butt"
   stroke-linejoin="miter"
   fill="none"
   transform="scale(1,-1)"
  >
<path id= "1" d=" M -157.685 148.194 L -157.685 156.359 " />
<path d="M-161.22 142.07 A5 2.88675 60 0 1 -157.685 148.194" />
<path id= "3" d=" M -173.948 134.722 L -161.22 142.07 " />
<path d="M-180.312,154.726 Q-180.489,154.692 -180.666,154.648 " /><path d="M-178.544 196.825 A17.5 10.1036 180 0 1 -184.065 198.978" />
<path d="M-206.893 185.555 A17.5 10.1036 180 0 1 -191.256 179.579" />
<path d="M-183.442 180.546 A17.5 10.1036 180 0 1 -177.701 183.06" />
<path d="M-178.767,183.882 L-179.093,184.154 " /><path d="M-179.093,184.154 C-180.23,185.108 -181.35,186.152 -182.401,187.261  C-183.636,188.563 -184.783,189.963 -185.692,191.354  C-186.419,192.464 -186.982,193.561 -187.302,194.527  C-187.668,195.622 -187.723,196.539 -187.507,197.223  C-187.31,197.86 -186.889,198.303 -186.332,198.58  C-185.834,198.829 -185.227,198.948 -184.573,198.975  C-184.25,198.987 -183.917,198.979 -183.572,198.951  C-183.23,198.923 -182.881,198.878 -182.524,198.816  C-182.312,198.78 -182.096,198.738 -181.876,198.69  C-181.353,198.577 -180.8,198.43 -180.236,198.256  C-179.903,198.154 -179.564,198.041 -179.219,197.919 " /><path d="M-179.219,197.919 C-177.676,197.37 -176.011,196.632 -174.24,195.675 " /><path d="M-174.24,153.449 C-175.256,153.252 -176.24,153.245 -177.183,153.386  C-178.566,153.595 -179.868,154.114 -181.086,154.91  C-181.558,155.219 -182.015,155.571 -182.459,155.967  C-183.091,156.532 -183.704,157.196 -184.282,157.973  C-184.945,158.864 -185.568,159.916 -186.096,161.131  C-186.372,161.764 -186.617,162.438 -186.831,163.153  C-187.324,164.802 -187.623,166.669 -187.634,168.613  C-187.639,169.568 -187.576,170.54 -187.441,171.504  C-187.195,173.266 -186.699,174.992 -186.017,176.511  C-185.185,178.375 -184.097,179.92 -182.907,181.115  C-181.616,182.412 -180.201,183.316 -178.767,183.882 " /><g transform = "rotate(180,-190.919,140.184)">
<ellipse cx ="-190.919" cy ="140.184" rx ="17.5"  ry ="10.1036"/>
</g>
<path d="M-163.812,164.807 C-164.287,163.581 -164.908,162.255 -165.631,160.961  C-166.275,159.81 -167.006,158.685 -167.788,157.715  C-168.281,157.102 -168.791,156.551 -169.303,156.078  C-169.88,155.542 -170.456,155.104 -171.017,154.75  C-171.931,154.174 -172.802,153.815 -173.624,153.592 " /><path d="M-173.624,153.592 Q-173.936,153.508 -174.24,153.449 " /><path d="M-164.39,178.114 C-163.746,176.982 -163.198,175.666 -162.861,174.166  C-162.605,173.03 -162.483,171.782 -162.534,170.539 " /><path d="M-162.534,170.539 C-162.577,169.389 -162.763,168.268 -163.027,167.236  C-163.246,166.379 -163.517,165.573 -163.812,164.807 " /><path d="M-163.812,185.849 C-163.415,185.053 -163.061,184.189 -162.822,183.305  C-162.659,182.708 -162.554,182.103 -162.529,181.54  C-162.493,180.769 -162.613,180.096 -162.854,179.573  C-163.107,179.019 -163.486,178.62 -163.936,178.344 " /><path d="M-163.936,178.344 Q-164.153,178.211 -164.39,178.114 " /><path d="M-174.24,195.675 C-173.582,195.32 -172.893,194.919 -172.173,194.471  C-171.419,193.999 -170.626,193.467 -169.818,192.857 " /><path d="M-169.818,192.857 C-168.921,192.179 -168.008,191.402 -167.172,190.545  C-166.773,190.136 -166.393,189.711 -166.034,189.271  C-165.137,188.176 -164.373,186.974 -163.812,185.849 " /><path d="M-186.28,184.961 C-186.277,186.851 -188.014,188.762 -191.272,190.024  C-192.461,190.483 -193.854,190.853 -195.455,191.087  C-197.338,191.361 -199.511,191.451 -201.992,191.221 " /><path d="M-223.062,178.526 C-223.575,177.504 -223.963,176.513 -224.269,175.551 " /><path d="M-225.527,159.848 C-225.43,159.685 -225.239,160.009 -224.645,160.868  C-224.33,161.317 -223.901,161.913 -223.264,162.667  C-222.784,163.235 -222.185,163.892 -221.403,164.643  C-220.777,165.243 -220.031,165.904 -219.121,166.619  C-218.354,167.221 -217.466,167.865 -216.452,168.524  C-215.532,169.123 -214.508,169.734 -213.442,170.315  C-212.318,170.929 -211.157,171.506 -210.022,172.031  C-208.709,172.64 -207.427,173.183 -206.204,173.676  C-204.702,174.281 -203.284,174.814 -201.955,175.304  C-200.236,175.938 -198.665,176.502 -197.236,177.038  C-195.462,177.702 -193.907,178.323 -192.561,178.944  C-190.051,180.098 -188.262,181.266 -187.246,182.524  C-186.606,183.315 -186.279,184.137 -186.28,184.961 " /><path d="M-187.336 197.633 A14.232 8.21687 -9.73842e-015 0 0 -180.855 195.491" />
<path d="M-164.39,178.114 L-164.423,178.1 " /><path d="M-164.423,178.1 C-164.867,177.925 -165.524,177.891 -166.422,178.013  C-166.892,178.075 -167.457,178.195 -168.117,178.371  C-168.71,178.533 -169.378,178.747 -170.085,179.01  C-171.559,179.556 -173.176,180.311 -174.61,181.108  C-175.025,181.339 -175.424,181.571 -175.822,181.814  C-176.124,181.998 -176.421,182.186 -176.712,182.378  C-177.441,182.857 -178.124,183.355 -178.712,183.837 " /><path d="M-178.712,183.837 L-178.767,183.882 " /><path d="M-180.855 145.994 A14.232 8.21687 -180 0 1 -204.179 137.199" />
<path d="M-177.659 137.199 A14.232 8.21687 -180 0 1 -180.855 145.994" />
</g>
</g>



<g id="upper body"
   transform="rotate(60,300,680) translate(300,680) scale(2,2)"
  >
<g   stroke="rgb(0, 0, 0)"
   stroke-width="0.175"
   stroke-linecap="butt"
   stroke-linejoin="miter"
   fill="none"
   transform="scale(1,-1)"
  >
<path id= "1" d=" M -156.978 149.419 L -160.867 151.664 " />
<path id= "2" d=" M -164.049 153.501 L -166.17 154.726 " />
<path id= "3" d=" M -89.0955 175.547 L -134.35 201.675 " />
<path id= "4" d=" M -190.919 169.015 L -134.35 201.675 " />
<path id= "5" d=" M -172.534 144.928 L -156.978 153.91 " />
<path id= "6" d=" M -172.534 143.703 L -172.534 144.928 " />
<path id= "7" d=" M -161.22 157.584 L -166.877 154.318 " />
<path id= "8" d=" M -166.877 151.868 L -166.877 154.318 " />
<path id= "9" d=" M -145.664 66.1362 L -89.0955 98.7961 " />
<path id= "10" d=" M -89.0955 98.7961 L -89.0955 175.547 " />
<path id= "11" d=" M -144.25 90.6311 L -144.25 106.961 " />
<path id= "12" d=" M -89.0955 98.7961 L -134.35 124.924 " />
<path id= "13" d=" M -134.35 124.924 L -134.35 201.675 " />
<path id= "14" d=" M -145.664 66.1362 L -190.919 92.2641 " />
<path id= "15" d=" M -190.919 92.2641 L -190.919 169.015 " />
<path id= "16" d=" M -190.919 92.2641 L -134.35 124.924 " />
<path id= "17" d=" M -173.948 135.13 L -156.978 144.928 " />
<path id= "18" d=" M -156.978 144.928 L -156.978 155.543 " />
<path id= "19" d=" M -173.948 145.745 L -156.978 155.543 " />
<path id= "20" d=" M -173.948 135.13 L -173.948 145.745 " />
<path d="M-174.337 140.213 A1.25 0.721688 60 0 1 -174.596 140.785" />
<path d="M-174.596 140.785 A1.25 0.721688 60 0 1 -175.846 138.62" />
<path d="M-175.846 138.62 A1.25 0.721688 60 0 1 -174.337 140.213" />
<path id= "24" d=" M -161.22 155.134 L -161.22 159.217 " />
<path id= "25" d=" M -161.22 155.134 L -168.291 151.052 " />
<path id= "26" d=" M -161.22 159.217 L -168.291 155.134 " />
<path id= "27" d=" M -168.291 151.052 L -168.291 155.134 " />
<path d="M-154.821 151.481 A1.25 0.721688 60 0 1 -155.08 152.053" />
<path d="M-155.08 152.053 A1.25 0.721688 60 0 1 -156.33 149.888" />
<path d="M-156.33 149.888 A1.25 0.721688 60 0 1 -154.821 151.481" />
<path id= "31" d=" M -133.643 84.5074 L -161.22 100.429 " />
<path d="M-143.69 72.362 A1.75 1.01036 -180 0 1 -141.628 72.362" />
<path id= "33" d=" M -155.563 109.411 L -155.607 109.436 " />
<path id= "34" d=" M -168.999 141.662 L -172.534 143.703 " />
<path id= "35" d=" M -172.534 144.928 L -173.948 145.745 " />
<path id= "36" d=" M -166.877 154.318 L -168.291 155.134 " />
<path d="M-141.421 72.2599 A1.75 1.01036 -180 0 1 -144.409 71.5455" />
<path d="M-144.409 71.5455 A1.75 1.01036 -180 0 1 -140.909 71.5455" />
<path d="M-140.909 71.5455 A1.75 1.01036 -180 0 1 -141.421 72.2599" />
<path d="M-124.981 85.0177 A2.75 1.58771 -180 0 1 -129.676 83.895" />
<path d="M-129.676 83.895 A2.75 1.58771 -180 0 1 -124.176 83.895" />
<path d="M-124.176 83.895 A2.75 1.58771 -180 0 1 -124.981 85.0177" />
<path d="M-117.91 89.1002 A2.75 1.58771 -180 0 1 -122.605 87.9775" />
<path d="M-122.605 87.9775 A2.75 1.58771 -180 0 1 -117.105 87.9775" />
<path d="M-117.105 87.9775 A2.75 1.58771 -180 0 1 -117.91 89.1002" />
<path id= "46" d=" M -162.635 99.6126 L -147.078 108.594 " />
<path id= "47" d=" M -162.635 99.6126 L -133.643 82.8744 " />
<path id= "48" d=" M -147.078 108.594 L -118.087 91.8559 " />
<path id= "49" d=" M -133.643 82.8744 L -118.087 91.8559 " />
<path d="M-152.558 109.104 A2.75 1.58771 -180 0 1 -157.253 107.982" />
<path d="M-157.253 107.982 A2.75 1.58771 -180 0 1 -151.753 107.982" />
<path d="M-151.753 107.982 A2.75 1.58771 -180 0 1 -152.558 109.104" />
<path d="M-159.629 105.022 A2.75 1.58771 -180 0 1 -164.324 103.899" />
<path d="M-164.324 103.899 A2.75 1.58771 -180 0 1 -158.824 103.899" />
<path d="M-158.824 103.899 A2.75 1.58771 -180 0 1 -159.629 105.022" />
<path id= "56" d=" M -133.643 84.5074 L -133.643 90.2229 " />
<path id= "57" d=" M -133.643 82.8744 L -133.643 84.5074 " />
<path d="M-163.211 105.175 A1.75 1.01036 -180 0 1 -159.937 105.175" />
<path d="M-156.14 109.257 A1.75 1.01036 -180 0 1 -152.866 109.257" />
<path id= "60" d=" M -168.999 137.988 L -168.999 141.662 " />
<path d="M-129.284 84.7115 A2.75 1.58771 -180 0 1 -124.567 84.7115" />
<path d="M-122.213 88.794 A2.75 1.58771 -180 0 1 -117.496 88.794" />
<path id= "63" d=" M -125.158 95.1219 L -124.451 95.5301 " />
<path id= "64" d=" M -125.158 93.4889 L -125.158 95.1219 " />
<path id= "65" d=" M -126.572 92.6724 L -125.158 93.4889 " />
<path id= "66" d=" M -126.572 92.6724 L -126.572 94.3054 " />
<path id= "67" d=" M -133.643 90.2229 L -126.572 94.3054 " />
<path d="M-156.861 108.798 A2.75 1.58771 -180 0 1 -152.144 108.798" />
<path d="M-163.932 104.716 A2.75 1.58771 -180 0 1 -159.215 104.716" />
<path id= "70" d=" M -125.158 93.4889 L -126.572 94.3054 " />
<path id= "71" d=" M -119.546 88.6159 L -120.959 89.4316 " />
<path d="M-128.563 85.1708 A1.75 1.01036 -180 0 1 -125.289 85.1708" />
<path d="M-121.492 89.2533 A1.75 1.01036 -180 0 1 -118.218 89.2533" />
</g>
</g>



<g id="middle body"
   transform="rotate(60,300,830) translate(300,830) scale(2,2)"
  >
<g   stroke="rgb(0, 0, 0)"
   stroke-width="0.175"
   stroke-linecap="butt"
   stroke-linejoin="miter"
   fill="none"
   transform="scale(1,-1)"
  >
<path id= "1" d=" M -129.258 95.368 L -131.38 96.5928 " />
<path id= "2" d=" M -143.275 70.2742 L -150.346 74.3567 " />
<path id= "3" d=" M -91.4845 171.409 L -98.5556 175.491 " />
</g>
<g   stroke="rgb(0, 0, 0)"
   stroke-width="0.175"
   stroke-linecap="butt"
   stroke-linejoin="miter"
   fill="none"
   transform="scale(1,-1)"
  >
<path id= "1" d=" M -125.865 98.7961 L -125.865 135.538 " />
<path id= "2" d=" M -125.865 135.538 L -112.43 143.295 " />
<path id= "3" d=" M -125.865 98.7961 L -112.43 106.553 " />
<path id= "4" d=" M -112.43 106.553 L -112.43 143.295 " />
<path d="M-118.158 133.048 A0.9 0.519615 60 0 1 -118.344 133.46" />
<path d="M-118.344 133.46 A0.9 0.519615 60 0 1 -119.244 131.901" />
<path d="M-119.244 131.901 A0.9 0.519615 60 0 1 -118.158 133.048" />
<path d="M-118.158 111.003 A0.9 0.519615 60 0 1 -118.344 111.415" />
<path d="M-118.344 111.415 A0.9 0.519615 60 0 1 -119.244 109.856" />
<path d="M-119.244 109.856 A0.9 0.519615 60 0 1 -118.158 111.003" />
<path id= "11" d=" M -124.451 97.9796 L -125.865 98.7961 " />
<path id= "12" d=" M -111.016 142.479 L -112.43 143.295 " />
<path id= "13" d=" M -111.016 105.736 L -112.43 106.553 " />
<path id= "14" d=" M -111.016 105.736 L -124.451 97.9796 " />
<path id= "15" d=" M -111.016 105.736 L -111.016 142.479 " />
<path id= "16" d=" M -145.664 66.1362 L -145.664 71.6536 " />
<path id= "17" d=" M -145.664 84.5074 L -145.664 134.722 " />
<path id= "18" d=" M -138.593 146.969 L -105.005 166.361 " />
<path id= "19" d=" M -94.7523 172.281 L -89.0955 175.547 " />
<path id= "20" d=" M -145.664 66.1362 L -89.0955 98.7961 " />
<path id= "21" d=" M -89.0955 98.7961 L -89.0955 175.547 " />
<path id= "22" d=" M -127.279 134.925 L -129.047 137.44 " />
<path id= "23" d=" M -129.047 137.44 L -135.171 129.822 " />
<path id= "24" d=" M -135.171 129.822 L -138.466 118.146 " />
<path d="M-138.466 118.146 A32 18.4752 60 0 1 -133.38 93.1287" />
<path d="M-133.38 93.1287 A32 18.4752 60 0 1 -128.693 91.6821" />
<path id= "27" d=" M -128.693 91.6821 L -127.279 95.327 " />
<path d="M-127.279 134.925 A28 16.1658 60 0 1 -131.38 96.5928" />
<path d="M-131.38 96.5928 A28 16.1658 60 0 1 -127.279 95.327" />
<path id= "30" d=" M -143.896 133.701 L -136.825 137.784 " />
<path id= "31" d=" M -136.825 145.949 L -136.825 137.784 " />
<path d="M-143.275 70.2742 A3 1.73205 60 0 1 -141.775 70.4228" />
<path id= "33" d=" M -141.775 70.4228 L -136.825 73.2806 " />
<path id= "34" d=" M -136.825 73.2806 L -136.825 81.4455 " />
<path id= "35" d=" M -92.9845 98.592 L -97.9343 95.7342 " />
<path id= "36" d=" M -90.8632 102.266 L -90.8632 107.982 " />
<path d="M-92.9845 98.592 A3 1.73205 60 0 1 -90.8632 102.266" />
<path d="M-90.8632 170.035 A3 1.73205 60 0 1 -91.4845 171.409" />
<path id= "39" d=" M -90.8632 170.035 L -90.8632 164.32 " />
<path id= "40" d=" M -90.8632 164.32 L -97.9343 160.237 " />
<path id= "41" d=" M -143.543 64.9115 L -145.664 66.1362 " />
<path id= "42" d=" M -86.9741 174.322 L -89.0955 175.547 " />
<path id= "43" d=" M -143.543 64.9115 L -86.9741 97.5713 " />
<path id= "44" d=" M -86.9741 97.5713 L -89.0955 98.7961 " />
<path id= "45" d=" M -86.9741 97.5713 L -86.9741 174.322 " />
<path id= "46" d=" M -135.171 129.822 L -133.049 128.597 " />
<path id= "47" d=" M -127.598 135.379 L -133.049 128.597 " />
<path id= "48" d=" M -133.049 128.597 L -136.344 116.921 " />
<path d="M-136.344 116.921 A32 18.4752 60 0 1 -132.284 92.5773" />
<path d="M-129.258 95.368 A28 16.1658 60 0 1 -127.561 94.6012" />
<path id= "51" d=" M -143.896 133.701 L -150.967 137.784 " />
<path id= "52" d=" M -150.967 143.499 L -150.967 137.784 " />
<path d="M-148.846 147.174 A3 1.73205 60 0 1 -150.967 143.499" />
<path id= "54" d=" M -150.967 137.784 L -143.896 141.866 " />
<path id= "55" d=" M -136.825 137.784 L -143.896 141.866 " />
<path id= "56" d=" M -148.846 147.174 L -143.896 150.031 " />
<path id= "57" d=" M -136.825 145.949 L -143.896 150.031 " />
<path id= "58" d=" M -143.896 150.031 L -143.896 141.866 " />
<path d="M-150.967 75.7301 A3 1.73205 60 0 1 -150.346 74.3567" />
<path d="M-150.346 74.3567 A3 1.73205 60 0 1 -148.846 74.5053" />
<path id= "61" d=" M -150.967 75.7301 L -150.967 81.4455 " />
<path id= "62" d=" M -136.825 73.2806 L -143.896 77.3631 " />
<path id= "63" d=" M -148.846 74.5053 L -143.896 77.3631 " />
<path d="M-141.421 74.3012 A1.75 1.01036 -180 0 1 -144.409 73.5868" />
<path d="M-144.409 73.5868 A1.75 1.01036 -180 0 1 -140.909 73.5868" />
<path d="M-140.909 73.5868 A1.75 1.01036 -180 0 1 -141.421 74.3012" />
<path id= "67" d=" M -136.825 81.4455 L -143.896 85.528 " />
<path id= "68" d=" M -150.967 81.4455 L -143.896 85.528 " />
<path id= "69" d=" M -143.896 77.3631 L -143.896 85.528 " />
<path id= "70" d=" M -97.9343 95.7342 L -105.005 99.8167 " />
<path id= "71" d=" M -105.005 99.8167 L -105.005 107.982 " />
<path id= "72" d=" M -90.8632 107.982 L -97.9343 112.064 " />
<path id= "73" d=" M -97.9343 112.064 L -105.005 107.982 " />
<path id= "74" d=" M -100.056 102.674 L -105.005 99.8167 " />
<path id= "75" d=" M -97.9343 106.349 L -97.9343 112.064 " />
<path d="M-100.056 102.674 A3 1.73205 60 0 1 -97.9343 106.349" />
<path id= "77" d=" M -100.056 175.343 L -105.005 172.485 " />
<path d="M-97.9343 174.118 A3 1.73205 60 0 1 -98.5556 175.491" />
<path d="M-98.5556 175.491 A3 1.73205 60 0 1 -100.056 175.343" />
<path id= "80" d=" M -105.005 172.485 L -105.005 164.32 " />
<path id= "81" d=" M -97.9343 160.237 L -105.005 164.32 " />
<path id= "82" d=" M -97.9343 174.118 L -97.9343 168.402 " />
<path id= "83" d=" M -90.8632 164.32 L -97.9343 168.402 " />
<path id= "84" d=" M -97.9343 168.402 L -105.005 164.32 " />
<path d="M-97.2272 164.32 A1.75 1.01036 -180 0 1 -100.215 163.606" />
<path d="M-100.215 163.606 A1.75 1.01036 -180 0 1 -96.7146 163.606" />
<path d="M-96.7146 163.606 A1.75 1.01036 -180 0 1 -97.2272 164.32" />
<path id= "88" d=" M -142.623 73.6072 L -141.421 74.3012 " />
<path id= "89" d=" M -142.623 73.6072 L -143.86 74.3213 " />
<path id= "90" d=" M -98.5 163.585 L -97.2272 164.32 " />
<path id= "91" d=" M -98.5 163.585 L -99.7369 164.299 " />
</g>
</g>



<g id="lower body"
   transform="rotate(60,300,975) translate(300,975) scale(2,2)"
  >
<g   stroke="rgb(0, 0, 0)"
   stroke-width="0.175"
   stroke-linecap="butt"
   stroke-linejoin="miter"
   fill="none"
   transform="scale(1,-1)"
  >
<path id= "1" d=" M -126.642 93.8575 L -128.551 94.9598 " />
</g>
<g   stroke="rgb(0, 0, 0)"
   stroke-width="0.175"
   stroke-linecap="butt"
   stroke-linejoin="miter"
   fill="none"
   transform="scale(1,-1)"
  >
<path id= "1" d=" M -142.836 70.2187 L -142.836 135.538 " />
<path id= "2" d=" M -142.836 135.538 L -86.267 168.198 " />
<path id= "3" d=" M -142.836 70.2187 L -86.267 102.879 " />
<path id= "4" d=" M -86.267 102.879 L -86.267 168.198 " />
<path d="M-135.637 116.513 A32 18.4752 60 0 1 -130.551 91.4957" />
<path d="M-130.551 91.4957 A32 18.4752 60 0 1 -125.865 90.0491" />
<path id= "7" d=" M -125.865 90.0491 L -124.451 93.694 " />
<path d="M-124.451 133.292 A28 16.1658 60 0 1 -128.551 94.9598" />
<path d="M-128.551 94.9598 A28 16.1658 60 0 1 -124.451 93.694" />
<path id= "10" d=" M -124.451 133.292 L -126.219 135.807 " />
<path id= "11" d=" M -126.219 135.807 L -132.342 128.189 " />
<path id= "12" d=" M -132.342 128.189 L -135.637 116.513 " />
<path d="M-123.213 118.29 A2.75 1.58771 60 0 1 -123.783 119.549" />
<path d="M-123.783 119.549 A2.75 1.58771 60 0 1 -126.533 114.786" />
<path d="M-126.533 114.786 A2.75 1.58771 60 0 1 -123.213 118.29" />
<path d="M-123.213 110.125 A2.75 1.58771 60 0 1 -123.783 111.384" />
<path d="M-123.783 111.384 A2.75 1.58771 60 0 1 -126.533 106.621" />
<path d="M-126.533 106.621 A2.75 1.58771 60 0 1 -123.213 110.125" />
<path d="M-88.5651 130.129 A2.75 1.58771 60 0 1 -89.1347 131.388" />
<path d="M-89.1347 131.388 A2.75 1.58771 60 0 1 -91.8847 126.625" />
<path d="M-91.8847 126.625 A2.75 1.58771 60 0 1 -88.5651 130.129" />
<path d="M-88.5651 138.294 A2.75 1.58771 60 0 1 -89.1347 139.553" />
<path d="M-89.1347 139.553 A2.75 1.58771 60 0 1 -91.8847 134.79" />
<path d="M-91.8847 134.79 A2.75 1.58771 60 0 1 -88.5651 138.294" />
<path id= "25" d=" M -92.9845 122.679 L -92.9845 140.642 " />
<path id= "26" d=" M -92.9845 122.679 L -122.329 105.736 " />
<path id= "27" d=" M -92.9845 140.642 L -122.329 123.699 " />
<path id= "28" d=" M -122.329 105.736 L -122.329 123.699 " />
<path id= "29" d=" M -86.267 37.5588 L -142.836 70.2187 " />
<path id= "30" d=" M -29.6985 135.538 L -86.267 168.198 " />
<path id= "31" d=" M -86.267 37.5588 L -29.6985 70.2187 " />
<path id= "32" d=" M -29.6985 70.2187 L -86.267 102.879 " />
<path d="M-86.762 72.3824 A3.3 1.90526 -9.73842e-015 0 0 -85.7955 71.0352" />
<path d="M-85.7955 71.0352 A3.3 1.90526 -9.73842e-015 1 0 -92.3955 71.0352" />
<path d="M-92.3955 71.0352 A3.3 1.90526 -9.73842e-015 0 0 -86.762 72.3824" />
<path id= "36" d=" M -108.187 61.6455 L -101.116 65.728 " />
<path id= "37" d=" M -108.187 61.6455 L -94.0452 53.4805 " />
<path id= "38" d=" M -101.116 65.728 L -86.9741 57.563 " />
<path id= "39" d=" M -94.0452 53.4805 L -86.9741 57.563 " />
<path d="M-77.3221 45.6217 A1.7 0.981495 -180 0 1 -80.2242 44.9277" />
<path d="M-80.2242 44.9277 A1.7 0.981495 -180 0 1 -76.8242 44.9277" />
<path d="M-76.8242 44.9277 A1.7 0.981495 -180 0 1 -77.3221 45.6217" />
<path id= "43" d=" M -29.6985 70.2187 L -29.6985 135.538 " />
<path d="M-133.728 115.411 A32 18.4752 60 0 1 -129.568 90.9939" />
<path d="M-126.642 93.8575 A28 16.1658 60 0 1 -124.714 93.0158" />
<path id= "46" d=" M -132.342 128.189 L -130.433 127.087 " />
<path id= "47" d=" M -124.915 133.952 L -130.433 127.087 " />
<path id= "48" d=" M -130.433 127.087 L -133.728 115.411 " />
<path d="M-123.246 118.682 A2.75 1.58771 60 0 1 -125.514 114.754" />
<path d="M-123.246 110.517 A2.75 1.58771 60 0 1 -125.514 106.589" />
<path d="M-88.598 130.521 A2.75 1.58771 60 0 1 -90.8657 126.593" />
<path d="M-88.598 138.686 A2.75 1.58771 60 0 1 -90.8657 134.758" />
<path id= "53" d=" M -118.299 121.372 L -122.329 123.699 " />
<path id= "54" d=" M -118.299 121.372 L -92.9845 135.988 " />
<path id= "55" d=" M -114.763 110.105 L -114.763 111.166 " />
<path id= "56" d=" M -113.844 110.635 L -114.763 111.166 " />
<path id= "57" d=" M -113.349 110.921 L -113.349 118.514 " />
<path id= "58" d=" M -113.349 118.514 L -116.885 120.556 " />
<path id= "59" d=" M -116.885 120.556 L -116.885 122.189 " />
<path d="M-86.4038 72.1375 A3.3 1.90526 -9.73842e-015 0 0 -91.7871 72.1375" />
<path id= "61" d=" M -106.278 62.7478 L -94.0452 55.6851 " />
<path id= "62" d=" M -94.0452 53.4805 L -94.0452 55.6851 " />
<path id= "63" d=" M -94.0452 55.6851 L -88.8833 58.6653 " />
<path d="M-123.249 117.843 A1.75 1.01036 60 0 1 -124.788 115.176" />
<path d="M-123.249 109.678 A1.75 1.01036 60 0 1 -124.788 107.011" />
<path d="M-88.6006 129.682 A1.75 1.01036 60 0 1 -90.1399 127.016" />
<path d="M-88.6006 137.847 A1.75 1.01036 60 0 1 -90.1399 135.18" />
<path id= "68" d=" M -106.773 114.718 L -113.349 118.514 " />
<path id= "69" d=" M -128.551 127.291 L -129.724 127.969 " />
</g>
</g>



<g id="base"
   transform="rotate(60,300,1200) translate(300,1200) scale(2,2)"
  >
<g   stroke="rgb(0, 0, 0)"
   stroke-width="0.175"
   stroke-linecap="butt"
   stroke-linejoin="miter"
   fill="none"
   transform="scale(1,-1)"
  >
<path id= "1" d=" M -83.7315 41.9505 L -88.6812 44.8083 " />
<path d="M-94.6916,48.2784 L-127.572,67.2619 " /><path id= "3" d=" M -32.234 131.147 L -35.0624 132.78 " />
</g>
<g   stroke="rgb(0, 0, 0)"
   stroke-width="0.175"
   stroke-linecap="butt"
   stroke-linejoin="miter"
   fill="none"
   transform="scale(1,-1)"
  >
<path id= "1" d=" M -89.0955 98.3878 L -89.0955 102.879 " />
<path id= "2" d=" M -126.572 74.7094 L -127.986 75.5259 " />
<path id= "3" d=" M -127.986 75.5259 L -127.986 117.167 " />
<path id= "4" d=" M -86.267 37.5588 L -86.267 43.4144 " />
<path id= "5" d=" M -83.085 104.716 L -80.2389 106.359 " />
<path id= "6" d=" M -74.9533 109.411 L -73.5391 110.227 " />
<path id= "7" d=" M -67.8823 113.493 L -39.598 129.823 " />
<path id= "8" d=" M -34.8377 132.571 L -29.6985 135.538 " />
<path id= "9" d=" M -86.267 37.5588 L -29.6985 70.2187 " />
<path id= "10" d=" M -29.6985 70.2187 L -29.6985 135.538 " />
<path d="M-82.7315 42.0496 A2 1.1547 -120 0 0 -83.7315 41.9505" />
<path id= "12" d=" M -72.832 47.765 L -82.7315 42.0496 " />
<path id= "13" d=" M -72.832 47.765 L -72.832 50.2145 " />
<path id= "14" d=" M -72.832 58.7878 L -72.832 59.6043 " />
<path id= "15" d=" M -70.7107 55.5739 L -70.7107 57.9191 " />
<path id= "16" d=" M -70.7107 63.7389 L -70.7107 66.0841 " />
<path id= "17" d=" M -65.7609 51.8475 L -70.7107 48.9898 " />
<path id= "18" d=" M -36.7696 68.5857 L -65.7609 51.8475 " />
<path id= "19" d=" M -33.234 70.627 L -36.7696 68.5857 " />
<path d="M-33.234 70.627 A2 1.1547 60 0 1 -31.8198 73.0764" />
<path id= "21" d=" M -31.8198 73.0764 L -31.8198 130.231 " />
<path d="M-32.234 131.147 A2 1.1547 -120 0 0 -31.8198 130.231" />
<path id= "23" d=" M -39.598 127.373 L -65.7609 112.268 " />
<path id= "24" d=" M -70.7107 92.2641 L -72.832 91.0394 " />
<path id= "25" d=" M -72.832 91.0394 L -72.832 93.4889 " />
<path id= "26" d=" M -72.832 102.062 L -72.832 102.879 " />
<path d="M-89.0955 102.879 A2 1.1547 -120 0 0 -87.6812 105.328" />
<path d="M-87.6812 44.9073 A2 1.1547 -120 0 0 -88.6812 44.8083" />
<path d="M-88.6812 44.8083 A2 1.1547 -120 0 0 -89.0955 45.7238" />
<path id= "30" d=" M -85.9135 45.9279 L -85.9135 96.5507 " />
<path id= "31" d=" M -85.9135 45.9279 L -77.7817 50.6228 " />
<path id= "32" d=" M -77.7817 50.6228 L -77.7817 67.7692 " />
<path id= "33" d=" M -78.4889 67.361 L -77.7817 67.7692 " />
<path id= "34" d=" M -78.4889 67.4435 L -78.4889 67.361 " />
<path d="M-79.196 66.9527 A5 2.88675 60 0 1 -78.4889 67.4435" />
<path id= "36" d=" M -79.196 66.9527 L -81.3173 65.728 " />
<path d="M-83.7922 65.4661 A5 2.88675 60 0 1 -81.3173 65.728" />
<path d="M-84.8528 67.7692 A5 2.88675 60 0 1 -83.8173 65.4803" />
<path d="M-83.8173 65.4803 A5 2.88675 60 0 1 -83.7922 65.4661" />
<path id= "40" d=" M -84.8528 67.7692 L -84.8528 85.7321 " />
<path d="M-83.7922 89.26 A5 2.88675 60 0 1 -84.8528 85.7321" />
<path d="M-81.3173 91.8559 A5 2.88675 60 0 1 -83.7922 89.26" />
<path id= "43" d=" M -79.196 93.0806 L -81.3173 91.8559 " />
<path d="M-78.4889 93.4064 A5 2.88675 60 0 1 -79.196 93.0806" />
<path id= "45" d=" M -78.4889 93.4889 L -78.4889 93.4064 " />
<path id= "46" d=" M -78.4889 93.4889 L -77.7817 93.8971 " />
<path id= "47" d=" M -77.7817 93.8971 L -77.7817 111.044 " />
<path id= "48" d=" M -87.6812 105.328 L -77.7817 111.044 " />
<path id= "49" d=" M -78.8424 107.165 L -83.085 104.716 " />
<path id= "50" d=" M -78.8424 104.716 L -78.8424 107.165 " />
<path id= "51" d=" M -83.085 102.266 L -83.085 104.716 " />
<path id= "52" d=" M -78.8424 104.716 L -83.085 102.266 " />
<path id= "53" d=" M -78.8424 55.7259 L -83.085 53.2764 " />
<path id= "54" d=" M -78.8424 53.2764 L -78.8424 55.7259 " />
<path id= "55" d=" M -83.085 50.8269 L -83.085 53.2764 " />
<path id= "56" d=" M -78.8424 53.2764 L -83.085 50.8269 " />
<path id= "57" d=" M -85.9135 96.5507 L -124.804 119.004 " />
<path id= "58" d=" M -127.986 117.167 L -124.804 119.004 " />
<path d="M-94.6916,48.2784 C-94.4301,48.1247 -94.0609,48.1623 -93.6916,48.3774 " /><path d="M-127.797,67.4704 Q-127.704,67.3381 -127.572,67.2619 " /><path d="M-127.572,67.2619 C-127.311,67.1083 -126.941,67.1459 -126.572,67.361 " /><path id= "62" d=" M -127.986 75.5259 L -126.572 76.3424 " />
<path id= "63" d=" M -127.797 67.4704 L -126.572 68.1775 " />
<path id= "64" d=" M -126.572 68.1775 L -126.572 76.3424 " />
<path id= "65" d=" M -126.572 67.361 L -124.804 68.3816 " />
<path id= "66" d=" M -124.804 68.3816 L -124.804 119.004 " />
<path id= "67" d=" M -82.7315 35.5176 L -86.267 37.5588 " />
<path id= "68" d=" M -26.163 133.497 L -29.6985 135.538 " />
<path id= "69" d=" M -82.7315 35.5176 L -26.163 68.1775 " />
<path id= "70" d=" M -26.163 68.1775 L -29.6985 70.2187 " />
<path id= "71" d=" M -26.163 68.1775 L -26.163 133.497 " />
<path id= "72" d=" M -85.9135 45.9279 L -124.804 68.3816 " />
<path id= "73" d=" M -87.6812 44.9073 L -93.6916 48.3774 " />
<path id= "74" d=" M -72.832 47.765 L -77.7817 50.6228 " />
<path d="M-77.2514 48.0712 A1.75 1.01036 180 0 1 -80.2389 47.3568" />
<path d="M-80.2389 47.3568 A1.75 1.01036 180 0 1 -76.7389 47.3568" />
<path d="M-76.7389 47.3568 A1.75 1.01036 180 0 1 -77.2514 48.0712" />
<path id= "78" d=" M -73.5391 65.3197 L -77.7817 67.7692 " />
<path id= "79" d=" M -65.0538 68.5857 L -68.5894 70.627 " />
<path id= "80" d=" M -68.5894 70.627 L -73.5391 67.7692 " />
<path id= "81" d=" M -70.7107 48.9898 L -73.5391 50.6228 " />
<path id= "82" d=" M -73.5391 50.6228 L -73.5391 58.3795 " />
<path id= "83" d=" M -72.1249 59.196 L -73.5391 60.0125 " />
<path id= "84" d=" M -73.5391 60.0125 L -73.5391 67.7692 " />
<path id= "85" d=" M -65.7609 51.8475 L -68.5894 53.4805 " />
<path id= "86" d=" M -73.5391 50.6228 L -68.5894 53.4805 " />
<path id= "87" d=" M -36.7696 68.5857 L -39.598 70.2187 " />
<path id= "88" d=" M -39.598 70.2187 L -36.0624 72.2599 " />
<path d="M-36.0624 72.2599 A2 1.1547 60 0 1 -34.6482 74.7094" />
<path id= "90" d=" M -34.6482 74.7094 L -34.6482 80.8332 " />
<path id= "91" d=" M -33.234 80.0167 L -34.6482 80.8332 " />
<path id= "92" d=" M -33.234 81.6497 L -33.234 80.0167 " />
<path id= "93" d=" M -33.234 81.6497 L -34.6482 82.4662 " />
<path id= "94" d=" M -34.6482 125.74 L -34.6482 131.864 " />
<path id= "95" d=" M -34.6482 82.4662 L -34.6482 90.2229 " />
<path id= "96" d=" M -33.234 124.924 L -34.6482 125.74 " />
<path id= "97" d=" M -34.6482 90.2229 L -44.5477 95.9383 " />
<path id= "98" d=" M -33.234 124.924 L -33.234 123.291 " />
<path id= "99" d=" M -44.5477 95.9383 L -44.5477 122.066 " />
<path id= "100" d=" M -33.234 123.291 L -34.6482 124.107 " />
<path id= "101" d=" M -34.6482 116.351 L -44.5477 122.066 " />
<path id= "102" d=" M -34.6482 116.351 L -34.6482 124.107 " />
<path d="M-36.0624 132.681 A2 1.1547 -120 0 0 -35.0624 132.78" />
<path d="M-35.0624 132.78 A2 1.1547 -120 0 0 -34.6482 131.864" />
<path id= "105" d=" M -39.598 130.639 L -36.0624 132.681 " />
<path id= "106" d=" M -62.2254 110.227 L -65.7609 112.268 " />
<path id= "107" d=" M -39.598 123.291 L -43.1335 121.25 " />
<path id= "108" d=" M -45.9619 119.617 L -62.2254 110.227 " />
<path id= "109" d=" M -65.7609 112.268 L -68.5894 113.901 " />
<path id= "110" d=" M -73.5391 111.044 L -68.5894 113.901 " />
<path id= "111" d=" M -73.5391 93.8971 L -73.5391 101.654 " />
<path id= "112" d=" M -72.1249 102.47 L -73.5391 103.287 " />
<path id= "113" d=" M -73.5391 103.287 L -73.5391 111.044 " />
<path id= "114" d=" M -70.7107 92.2641 L -73.5391 93.8971 " />
<path id= "115" d=" M -72.832 90.2229 L -78.4889 93.4889 " />
<path id= "116" d=" M -72.832 90.2229 L -65.0538 94.7136 " />
<path id= "117" d=" M -65.0538 94.7136 L -68.5894 96.7548 " />
<path id= "118" d=" M -68.5894 96.7548 L -73.5391 93.8971 " />
<path id= "119" d=" M -72.832 91.0394 L -77.7817 93.8971 " />
<path id= "120" d=" M -73.5391 108.594 L -77.7817 111.044 " />
<path d="M-111.808 106.145 A1.6 0.92376 120 0 0 -112.608 108.837" />
<path d="M-112.608 108.837 A1.6 0.92376 120 0 0 -111.008 106.065" />
<path d="M-111.008 106.065 A1.6 0.92376 120 0 0 -111.808 106.145" />
<path d="M-92.0087 94.7136 A1.6 0.92376 120 0 0 -92.8087 97.4056" />
<path d="M-92.8087 97.4056 A1.6 0.92376 120 0 0 -91.2087 94.6344" />
<path d="M-91.2087 94.6344 A1.6 0.92376 120 0 0 -92.0087 94.7136" />
<path d="M-89.5197 52.0925 A1.6 0.92376 120 0 0 -89.1883 52.8249" />
<path d="M-89.1883 52.8249 A1.6 0.92376 120 0 0 -87.5883 50.0536" />
<path d="M-87.5883 50.0536 A1.6 0.92376 120 0 0 -89.5197 52.0925" />
<path d="M-123.641 72.8131 A1.6 0.92376 120 0 0 -123.31 73.5456" />
<path d="M-123.31 73.5456 A1.6 0.92376 120 0 0 -121.71 70.7743" />
<path d="M-121.71 70.7743 A1.6 0.92376 120 0 0 -123.641 72.8131" />
<path id= "133" d=" M -78.4174 67.4022 L -78.4889 67.4435 " />
<path id= "134" d=" M -76.3675 66.9527 L -76.3675 80.8332 " />
<path d="M-72.832 86.9569 A5 2.88675 60 0 1 -76.3675 80.8332" />
<path id= "136" d=" M -70.7107 88.1816 L -72.832 86.9569 " />
<path d="M-69.2965 87.3651 A5 2.88675 60 0 1 -70.0036 89.4064" />
<path id= "138" d=" M -70.0036 89.4064 L -70.7107 89.8146 " />
<path d="M-70.7107 89.8146 A5 2.88675 60 0 1 -71.0391 90.0623" />
<path d="M-71.0391 90.0623 A5 2.88675 60 0 1 -72.832 90.1404" />
<path id= "141" d=" M -72.832 90.1404 L -78.4889 93.4064 " />
<path d="M-69.5075 88.6326 A5 2.88675 60 0 1 -70.7107 88.1816" />
<path id= "143" d=" M -72.832 90.2229 L -72.832 90.1404 " />
<path id= "144" d=" M -80.9637 103.491 L -83.085 104.716 " />
<path d="M-78.8424 105.501 A1.75 1.01036 180 0 1 -80.2389 104.512" />
<path d="M-80.2389 104.512 A1.75 1.01036 180 0 1 -80.0283 104.031" />
<path id= "147" d=" M -80.9637 52.0517 L -83.085 53.2764 " />
<path d="M-78.8424 54.0618 A1.75 1.01036 180 0 1 -80.2389 53.0723" />
<path d="M-80.2389 53.0723 A1.75 1.01036 180 0 1 -80.0283 52.5917" />
<path id= "150" d=" M -62.2254 53.8888 L -62.2254 66.9527 " />
<path id= "151" d=" M -39.598 80.0167 L -62.2254 66.9527 " />
<path id= "152" d=" M -62.2254 96.3466 L -62.2254 110.227 " />
<path id= "153" d=" M -66.468 69.4022 L -39.598 84.9156 " />
<path id= "154" d=" M -65.0538 68.5857 L -39.598 83.2827 " />
<path id= "155" d=" M -68.5894 62.8702 L -68.5894 70.627 " />
<path id= "156" d=" M -62.2254 66.9527 L -65.0538 68.5857 " />
<path id= "157" d=" M -68.5894 53.4805 L -68.5894 61.2372 " />
<path id= "158" d=" M -67.1751 60.4207 L -68.5894 61.2372 " />
<path id= "159" d=" M -67.1751 62.0537 L -67.1751 60.4207 " />
<path id= "160" d=" M -67.1751 62.0537 L -68.5894 62.8702 " />
<path id= "161" d=" M -68.5894 62.8702 L -73.5391 60.0125 " />
<path d="M-72.6552 63.7888 A1.75 1.01036 -120 0 0 -70.5428 66.0188" />
<path d="M-70.5428 66.0188 A1.75 1.01036 -120 0 0 -72.2928 62.9877" />
<path d="M-72.2928 62.9877 A1.75 1.01036 -120 0 0 -72.6552 63.7888" />
<path id= "165" d=" M -68.5894 61.2372 L -73.5391 58.3795 " />
<path d="M-72.6552 55.6238 A1.75 1.01036 -120 0 0 -70.5428 57.8538" />
<path d="M-70.5428 57.8538 A1.75 1.01036 -120 0 0 -72.2928 54.8227" />
<path d="M-72.2928 54.8227 A1.75 1.01036 -120 0 0 -72.6552 55.6238" />
<path id= "169" d=" M -72.1249 59.196 L -67.1751 62.0537 " />
<path id= "170" d=" M -39.598 70.2187 L -39.598 77.9754 " />
<path id= "171" d=" M -38.1838 78.7919 L -39.598 79.6084 " />
<path id= "172" d=" M -39.598 79.6084 L -39.598 87.3651 " />
<path id= "173" d=" M -34.6482 80.8332 L -39.598 77.9754 " />
<path d="M-38.007 75.628 A1.75 1.01036 -120 0 0 -35.8946 77.858" />
<path d="M-35.8946 77.858 A1.75 1.01036 -120 0 0 -37.6446 74.8269" />
<path d="M-37.6446 74.8269 A1.75 1.01036 -120 0 0 -38.007 75.628" />
<path id= "177" d=" M -34.6482 80.8332 L -33.234 81.6497 " />
<path id= "178" d=" M -34.6482 82.4662 L -39.598 79.6084 " />
<path id= "179" d=" M -39.598 122.883 L -39.598 130.639 " />
<path id= "180" d=" M -34.6482 125.74 L -39.598 122.883 " />
<path d="M-38.007 127.067 A1.75 1.01036 -120 0 0 -35.8946 129.297" />
<path d="M-35.8946 129.297 A1.75 1.01036 -120 0 0 -37.6446 126.266" />
<path d="M-37.6446 126.266 A1.75 1.01036 -120 0 0 -38.007 127.067" />
<path id= "184" d=" M -39.598 87.3651 L -36.0624 89.4064 " />
<path id= "185" d=" M -36.0624 89.4064 L -34.6482 90.2229 " />
<path d="M-38.007 83.793 A1.75 1.01036 -120 0 0 -35.8946 86.0229" />
<path d="M-35.8946 86.0229 A1.75 1.01036 -120 0 0 -37.6446 82.9919" />
<path d="M-37.6446 82.9919 A1.75 1.01036 -120 0 0 -38.007 83.793" />
<path id= "189" d=" M -38.1838 122.066 L -33.234 124.924 " />
<path id= "190" d=" M -38.1838 122.066 L -39.598 122.883 " />
<path id= "191" d=" M -45.9619 95.1219 L -44.5477 95.9383 " />
<path id= "192" d=" M -45.9619 95.1219 L -36.0624 89.4064 " />
<path id= "193" d=" M -45.9619 95.1219 L -45.9619 121.25 " />
<path id= "194" d=" M -45.9619 121.25 L -44.5477 122.066 " />
<path id= "195" d=" M -34.6482 124.107 L -39.598 121.25 " />
<path id= "196" d=" M -39.598 119.209 L -39.598 121.25 " />
<path d="M-38.007 118.902 A1.75 1.01036 -120 0 0 -35.8946 121.132" />
<path d="M-35.8946 121.132 A1.75 1.01036 -120 0 0 -37.6446 118.101" />
<path d="M-37.6446 118.101 A1.75 1.01036 -120 0 0 -38.007 118.902" />
<path id= "200" d=" M -68.5894 96.7548 L -68.5894 104.512 " />
<path id= "201" d=" M -67.1751 103.695 L -68.5894 104.512 " />
<path id= "202" d=" M -67.1751 105.328 L -67.1751 103.695 " />
<path id= "203" d=" M -67.1751 105.328 L -68.5894 106.145 " />
<path id= "204" d=" M -68.5894 106.145 L -68.5894 113.901 " />
<path id= "205" d=" M -68.5894 106.145 L -73.5391 103.287 " />
<path d="M-72.6552 107.063 A1.75 1.01036 -120 0 0 -70.5428 109.293" />
<path d="M-70.5428 109.293 A1.75 1.01036 -120 0 0 -72.2928 106.262" />
<path d="M-72.2928 106.262 A1.75 1.01036 -120 0 0 -72.6552 107.063" />
<path id= "209" d=" M -68.5894 104.512 L -73.5391 101.654 " />
<path d="M-72.6552 98.8981 A1.75 1.01036 -120 0 0 -70.5428 101.128" />
<path d="M-70.5428 101.128 A1.75 1.01036 -120 0 0 -72.2928 98.097" />
<path d="M-72.2928 98.097 A1.75 1.01036 -120 0 0 -72.6552 98.8981" />
<path id= "213" d=" M -72.1249 102.47 L -67.1751 105.328 " />
<path id= "214" d=" M -65.0538 94.7136 L -45.9619 105.736 " />
<path id= "215" d=" M -70.7107 89.8146 L -45.9619 104.103 " />
<path id= "216" d=" M -69.2965 87.3651 L -69.2965 70.2187 " />
<path id= "217" d=" M -70.0036 89.4064 L -45.9619 103.287 " />
</g>
</g>



<g id="right leg"
   transform="rotate(60,110,2000) translate(110,2000) scale(2,2)"
  >
<g   stroke="rgb(0, 0, 0)"
   stroke-width="0.175"
   stroke-linecap="butt"
   stroke-linejoin="miter"
   fill="none"
   transform="scale(1,-1)"
  >
<path id= "1" d=" M 23.6348 19.8924 L 25.6147 21.0355 " />
<path id= "2" d=" M -10.3063 0.296444 L -7.47792 1.92944 " />
</g>
<g   stroke="rgb(0, 0, 0)"
   stroke-width="0.175"
   stroke-linecap="butt"
   stroke-linejoin="miter"
   fill="none"
   transform="scale(1,-1)"
  >
<path id= "1" d=" M -14.8492 60.829 L -29.5462 79.1122 " />
<path id= "2" d=" M 19.6019 23.7922 L -18.8281 45.9798 " />
<path id= "3" d=" M -18.8281 45.9798 L -33.5251 64.263 " />
<path id= "4" d=" M -33.5251 64.263 L -33.7888 64.4153 " />
<path id= "5" d=" M -33.7888 64.4153 L -33.7888 81.5617 " />
<path id= "6" d=" M -29.5462 79.1122 L -33.7888 81.5617 " />
<path id= "7" d=" M -29.5462 79.1122 L -29.5462 79.1122 " />
<path id= "8" d=" M 19.6019 40.9386 L -14.8492 60.829 " />
<path d="M19.6019 40.9386 A11 6.35085 -60 0 1 16.4203 40.5531" />
<path d="M16.4203 40.5531 A11 6.35085 -60 0 1 19.6019 23.7922" />
<path id= "11" d=" M -64.083 39.1704 L -32.9703 57.1333 " />
<path id= "12" d=" M -32.9703 57.1333 L -22.3637 43.9385 " />
<path id= "13" d=" M -22.3637 43.9385 L 18.3848 20.4124 " />
<path d="M18.3848 20.4124 A10.5 6.06218 -60 0 1 23.6348 19.8924" />
<path d="M22.2739 26.7403 A5.5 3.17543 -60 0 1 16.8091 34.001" />
<path d="M15.4973 33.6611 A5.5 3.17543 -60 0 1 14.7578 32.7003" />
<path d="M21.9404 25.1134 A5.5 3.17543 -60 0 1 22.2739 26.7403" />
<path id= "18" d=" M 18.0463 40.0405 L 20.3647 38.7019 " />
<path id= "19" d=" M 18.0463 40.0405 L 19.6019 40.9386 " />
<path id= "20" d=" M 18.3848 20.4124 L 20.3647 21.5555 " />
<path id= "21" d=" M 18.0463 22.894 L 20.3647 21.5555 " />
<path id= "22" d=" M 18.0463 22.894 L 19.6019 23.7922 " />
<path id= "23" d=" M -22.3637 43.9385 L -18.8281 45.9798 " />
<path id= "24" d=" M -56.3048 24.3426 L -53.4764 25.9756 " />
<path id= "25" d=" M -64.083 39.1704 L -53.4764 25.9756 " />
<path id= "26" d=" M -71.0017 42.6259 L -33.5251 64.263 " />
<path id= "27" d=" M -56.3048 24.3426 L -71.0017 42.6259 " />
<path id= "28" d=" M -71.2655 42.7781 L -33.7888 64.4153 " />
<path id= "29" d=" M -71.0017 42.6259 L -71.2655 42.7781 " />
<path id= "30" d=" M -71.2655 42.7781 L -71.2655 59.9246 " />
<path id= "31" d=" M -71.2655 59.9246 L -33.7888 81.5617 " />
<path d="M-56.0627 66.2524 A1 0.57735 -120 0 0 -54.8556 67.5267" />
<path d="M-54.8556 67.5267 A1 0.57735 -120 1 0 -55.8556 65.7946" />
<path d="M-55.8556 65.7946 A1 0.57735 -120 0 0 -56.0627 66.2524" />
<path d="M-48.3906 64.5582 A1 0.57735 -120 0 0 -47.1835 65.8325" />
<path d="M-47.1835 65.8325 A1 0.57735 -120 1 0 -48.1835 64.1004" />
<path d="M-48.1835 64.1004 A1 0.57735 -120 0 0 -48.3906 64.5582" />
<path d="M-48.9916 64.2112 A5.5 3.17543 60 0 1 -50.1307 66.7289" />
<path d="M-50.1307 66.7289 A5.5 3.17543 60 0 1 -55.6307 57.2027" />
<path d="M-55.6307 57.2027 A5.5 3.17543 60 0 1 -48.9916 64.2112" />
<path d="M-56.0627 54.005 A1 0.57735 -120 0 0 -54.8556 55.2792" />
<path d="M-54.8556 55.2792 A1 0.57735 -120 1 0 -55.8556 53.5472" />
<path d="M-55.8556 53.5472 A1 0.57735 -120 0 0 -56.0627 54.005" />
<path d="M18.0463 40.0405 A11 6.35085 -60 0 1 15.6978 40.0083" />
<path id= "45" d=" M -53.2125 45.4464 L -49.4975 40.8248 " />
<path d="M-49.3285 65.8448 A5.5 3.17543 60 0 1 -54.4639 56.95" />
<path id= "47" d=" M -53.4764 25.9756 L -12.7279 2.44949 " />
<path id= "48" d=" M -49.4975 40.8248 L -12.7279 19.5959 " />
<path d="M-12.7279 2.44949 A10.5 6.06218 -60 0 1 -7.47792 1.92944" />
<path d="M-7.47792 1.92944 A10.5 6.06218 -60 0 1 -12.7279 19.5959" />
<path d="M-11.4905 10.3083 A1.75 1.01036 -60 0 1 -13.6029 12.5382" />
<path d="M-13.6029 12.5382 A1.75 1.01036 -60 0 1 -11.8529 9.50716" />
<path d="M-11.8529 9.50716 A1.75 1.01036 -60 0 1 -11.4905 10.3083" />
<path d="M20.3647 21.5555 A10.5 6.06218 -60 0 1 25.6147 21.0355" />
<path d="M25.6147 21.0355 A10.5 6.06218 -60 0 1 20.3647 38.7019" />
<path d="M23.5467 22.1679 A1 0.57735 -60 0 1 22.3395 23.4422" />
<path d="M22.3395 23.4422 A1 0.57735 -60 0 1 23.3395 21.7101" />
<path d="M23.3395 21.7101 A1 0.57735 -60 0 1 23.5467 22.1679" />
<path d="M24.2538 27.8834 A5.5 3.17543 -60 0 1 17.6147 34.8919" />
<path d="M17.6147 34.8919 A5.5 3.17543 -60 0 1 23.1147 25.3656" />
<path d="M23.1147 25.3656 A5.5 3.17543 -60 0 1 24.2538 27.8834" />
<path d="M23.5467 34.4153 A1 0.57735 -60 0 1 22.3395 35.6896" />
<path d="M22.3395 35.6896 A1 0.57735 -60 0 1 23.3395 33.9576" />
<path d="M23.3395 33.9576 A1 0.57735 -60 0 1 23.5467 34.4153" />
<path d="M15.8745 32.7211 A1 0.57735 -60 0 1 14.6674 33.9954" />
<path d="M14.6674 33.9954 A1 0.57735 -60 0 1 15.6674 32.2633" />
<path d="M15.6674 32.2633 A1 0.57735 -60 0 1 15.8745 32.7211" />
<path id= "68" d=" M -15.5563 0.816497 L -12.7279 2.44949 " />
<path id= "69" d=" M -15.5563 0.816497 L -56.3048 24.3426 " />
<path d="M-15.5563 0.816497 A10.5 6.06218 -60 0 1 -10.3063 0.296444" />
</g>
</g>



<g id="right foot"
   transform="rotate(60,110,2000) translate(110,2000) scale(2,2)"
  >
<g   stroke="rgb(0, 0, 0)"
   stroke-width="0.175"
   stroke-linecap="butt"
   stroke-linejoin="miter"
   fill="none"
   transform="scale(1,-1)"
  >
<path id= "1" d=" M 50.9619 57.2418 L 33.9914 67.0398 " />
<path id= "2" d=" M -22.6777 -45.8108 L -39.6482 -36.0129 " />
</g>
<g   stroke="rgb(0, 0, 0)"
   stroke-width="0.175"
   stroke-linecap="butt"
   stroke-linejoin="miter"
   fill="none"
   transform="scale(1,-1)"
  >
<path d="M22.086 -0.31259 A3 1.73205 -60 0 1 19.7132 0.556835" />
<path d="M19.7132 0.556835 A3 1.73205 -60 0 1 19.2798 -1.93278" />
<path id= "3" d=" M 11.3137 56.3383 L 25.4558 48.1733 " />
<path id= "4" d=" M 11.3137 53.8888 L 11.3137 56.3383 " />
<path id= "5" d=" M 11.3137 53.8888 L 13.435 52.664 " />
<path id= "6" d=" M 13.435 44.7672 L 13.435 52.664 " />
<path id= "7" d=" M 25.4558 -17.1464 L 25.4558 -8.98146 " />
<path id= "8" d=" M 25.4558 1.63299 L 25.4558 48.1733 " />
<path d="M16.2635 40.8248 A3 1.73205 -60 0 1 13.435 44.7672" />
<path id= "10" d=" M 11.3137 -8.98146 L 25.4558 -17.1464 " />
<path d="M13.435 40.1484 A3 1.73205 -60 0 1 15.6421 39.4515" />
<path d="M15.6421 39.4515 A3 1.73205 -60 0 1 16.2635 40.8248" />
<path id= "13" d=" M 11.3137 -8.98146 L 11.3137 -6.53197 " />
<path id= "14" d=" M 13.435 39.6001 L 13.435 40.1484 " />
<path id= "15" d=" M 11.3137 -6.53197 L 13.435 -7.75672 " />
<path id= "16" d=" M 13.435 39.6001 L 24.7487 33.0681 " />
<path id= "17" d=" M 13.435 -7.75672 L 13.435 0.140089 " />
<path id= "18" d=" M 24.7487 1.22474 L 24.7487 33.0681 " />
<path d="M13.435 0.140089 A3 1.73205 -60 0 1 15.6421 -0.556835" />
<path d="M15.6421 -0.556835 A3 1.73205 -60 0 1 16.2635 0.816497" />
<path id= "21" d=" M 13.435 5.30723 L 22.6274 8.88178e-016 " />
<path d="M16.2635 0.816497 A3 1.73205 -60 0 1 13.435 4.75889" />
<path id= "23" d=" M 13.435 4.75889 L 13.435 5.30723 " />
<path d="M23.3345 36.7423 A3 1.73205 -60 0 1 19.7132 40.5652" />
<path d="M19.7132 40.5652 A3 1.73205 -60 0 1 22.7132 35.369" />
<path d="M22.7132 35.369 A3 1.73205 -60 0 1 23.3345 36.7423" />
<path id= "27" d=" M 18.3848 60.4207 L 28.9914 66.5445 " />
<path id= "28" d=" M 25.4558 48.1733 L 30.4056 51.031 " />
<path id= "29" d=" M -18.0312 39.396 L 11.3137 56.3383 " />
<path id= "30" d=" M -23.6881 36.13 L -18.0312 32.864 " />
<path id= "31" d=" M -34.6482 29.8021 L -23.6881 36.13 " />
<path id= "32" d=" M -18.0312 -25.9238 L -18.0312 39.396 " />
<path id= "33" d=" M 11.3137 53.8888 L 9.19239 52.664 " />
<path id= "34" d=" M 9.19239 39.6001 L 9.19239 52.664 " />
<path id= "35" d=" M 9.19239 39.6001 L 6.01041 37.763 " />
<path id= "36" d=" M 6.01041 37.763 L 6.01041 43.4784 " />
<path id= "37" d=" M 6.01041 43.4784 L 3.18198 41.8454 " />
<path id= "38" d=" M 3.18198 36.13 L 3.18198 41.8454 " />
<path id= "39" d=" M 3.18198 36.13 L -10.6066 28.1691 " />
<path id= "40" d=" M -10.6066 28.1691 L -10.6066 41.2331 " />
<path id= "41" d=" M -10.6066 41.2331 L -14.8492 38.7836 " />
<path id= "42" d=" M -14.8492 25.7196 L -14.8492 38.7836 " />
<path id= "43" d=" M -14.8492 25.7196 L -15.2028 25.5155 " />
<path id= "44" d=" M -15.2028 -8.77734 L -15.2028 25.5155 " />
<path id= "45" d=" M 3.18198 1.83712 L -15.2028 -8.77734 " />
<path id= "46" d=" M 3.18198 -3.87836 L 3.18198 1.83712 " />
<path id= "47" d=" M 6.01041 -2.24537 L 3.18198 -3.87836 " />
<path id= "48" d=" M 6.01041 -2.24537 L 6.01041 3.47011 " />
<path id= "49" d=" M 9.19239 5.30723 L 6.01041 3.47011 " />
<path id= "50" d=" M 9.19239 -7.75672 L 9.19239 5.30723 " />
<path id= "51" d=" M 11.3137 -6.53197 L 9.19239 -7.75672 " />
<path id= "52" d=" M -18.0312 -25.9238 L 11.3137 -8.98146 " />
<path id= "53" d=" M 9.19239 52.664 L 13.435 52.664 " />
<path id= "54" d=" M 9.19239 39.6001 L 13.435 39.6001 " />
<path d="M13.435,44.7672 L13.3085,44.7401  L13.1835,44.7106  L13.0601,44.6789  L12.9386,44.6449  L12.8191,44.6087  L12.7015,44.5703  L12.5862,44.5298  L12.4732,44.4871  L12.3625,44.4424  L12.2544,44.3958  L12.1489,44.3471  L12.0461,44.2965  L11.9462,44.2441  L11.8492,44.1899 " /><path d="M11.8492,44.1899 L11.4497,43.9233  L11.1206,43.6265  L10.8687,43.3054  L10.6992,42.9668  L10.6156,42.6176  L10.6198,42.2651  L10.7115,41.9166  L10.8888,41.5793  L11.1482,41.2603  L11.4843,40.966  L11.89,40.7026  L12.357,40.4755  L12.8756,40.2895  L13.435,40.1484 " /><path d="M12.3037 40.4982 A3 1.73205 -60 0 1 10.6066 42.4578" />
<path id= "58" d=" M -17.6777 -45.3156 L 45.9619 -8.57321 " />
<path id= "59" d=" M 18.3848 -4.89898 L 28.9914 1.22474 " />
<path id= "60" d=" M 18.3848 -4.89898 L 32.5269 -13.0639 " />
<path id= "61" d=" M 25.4558 -17.1464 L 32.5269 -13.0639 " />
<path id= "62" d=" M -18.0312 -25.9238 L -3.88909 -34.0887 " />
<path id= "63" d=" M -9.54594 -37.3547 L -3.88909 -34.0887 " />
<path id= "64" d=" M -23.6881 -29.1898 L -9.54594 -37.3547 " />
<path id= "65" d=" M -34.6482 -35.5176 L -23.6881 -29.1898 " />
<path id= "66" d=" M 6.01041 37.763 L 19.4454 30.0062 " />
<path id= "67" d=" M 19.4454 30.0062 L 24.7487 33.0681 " />
<path id= "68" d=" M 9.19239 5.30723 L 13.435 5.30723 " />
<path d="M13.435,4.75889 L13.3085,4.73174  L13.1835,4.70228  L13.0601,4.67053  L12.9386,4.63654  L12.8191,4.60033  L12.7015,4.56195  L12.5862,4.52142  L12.4732,4.47879  L12.3625,4.43412  L12.2544,4.38743  L12.1489,4.33877  L12.0461,4.28821  L11.9462,4.23578  L11.8492,4.18154 " /><path d="M11.8492,4.18154 L11.4497,3.91501  L11.1206,3.61813  L10.8687,3.29705  L10.6992,2.95842  L10.6156,2.60926  L10.6198,2.25678  L10.7115,1.90829  L10.8888,1.57101  L11.1482,1.25193  L11.4843,0.957638  L11.89,0.694241  L12.357,0.467191  L12.8756,0.28119  L13.435,0.140089 " /><path id= "71" d=" M 16.617 28.3733 L 16.617 31.6392 " />
<path id= "72" d=" M -1.76777 17.7588 L 16.617 28.3733 " />
<path id= "73" d=" M -1.76777 -1.02062 L -1.76777 17.7588 " />
<path d="M12.3037 0.489898 A3 1.73205 -60 0 1 10.6066 2.44949" />
<path d="M28.9914 66.5445 A10 5.7735 -120 0 0 33.9914 67.0398" />
<path d="M33.9914 67.0398 A10 5.7735 -120 0 0 35.3663 65.5928" />
<path id= "77" d=" M 52.3369 55.7949 L 35.3663 65.5928 " />
<path d="M50.9619 57.2418 A10 5.7735 -120 0 0 52.3369 55.7949" />
<path id= "79" d=" M 18.3848 57.9713 L 32.5269 49.8063 " />
<path id= "80" d=" M 18.3848 57.9713 L 18.3848 60.4207 " />
<path id= "81" d=" M -23.6881 33.6805 L -18.0312 30.4145 " />
<path id= "82" d=" M -23.6881 33.6805 L -23.6881 36.13 " />
<path d="M-41.0232 21.4894 A10 5.7735 -120 0 0 -34.6482 29.8021" />
<path id= "84" d=" M 6.01041 40.2125 L 3.18198 41.8454 " />
<path id= "85" d=" M 3.18198 36.13 L 16.617 28.3733 " />
<path d="M14.3189 32.5578 A1.75 1.01036 -60 0 1 14.2673 32.9958" />
<path d="M11.8956 34.3651 A1.75 1.01036 -60 0 1 13.9565 31.7567" />
<path d="M13.9565 31.7567 A1.75 1.01036 -60 0 1 14.3189 32.5578" />
<path d="M7.24784 36.6403 A1.75 1.01036 -60 0 1 7.19626 37.0783" />
<path d="M6.01041 38.7836 A1.75 1.01036 -60 0 1 5.13541 38.8703" />
<path d="M5.13541 38.8703 A1.75 1.01036 -60 0 1 6.88541 35.8392" />
<path d="M6.88541 35.8392 A1.75 1.01036 -60 0 1 7.24784 36.6403" />
<path id= "93" d=" M -10.6066 28.1691 L -0.707107 22.4537 " />
<path id= "94" d=" M -4.94975 20.0042 L -0.707107 22.4537 " />
<path id= "95" d=" M -14.8492 25.7196 L -4.94975 20.0042 " />
<path id= "96" d=" M -1.76777 17.7588 L -15.2028 25.5155 " />
<path id= "97" d=" M -1.06066 32.864 L 1.06066 34.0887 " />
<path id= "98" d=" M -1.06066 32.864 L 3.18198 30.4145 " />
<path id= "99" d=" M 1.06066 34.0887 L 5.3033 31.6392 " />
<path id= "100" d=" M 3.18198 30.4145 L 5.3033 31.6392 " />
<path id= "101" d=" M 6.01041 28.7815 L 8.13173 30.0062 " />
<path id= "102" d=" M 6.01041 28.7815 L 10.253 26.332 " />
<path id= "103" d=" M 8.13173 30.0062 L 12.3744 27.5568 " />
<path id= "104" d=" M 10.253 26.332 L 12.3744 27.5568 " />
<path id= "105" d=" M -10.6066 36.3341 L -14.8492 38.7836 " />
<path id= "106" d=" M -4.94975 20.0042 L -4.94975 24.9031 " />
<path d="M-6.89429 11.3289 A2.75 1.58771 -60 0 1 -10.2138 14.8331" />
<path d="M-10.2138 14.8331 A2.75 1.58771 -60 0 1 -7.46383 10.07" />
<path d="M-7.46383 10.07 A2.75 1.58771 -60 0 1 -6.89429 11.3289" />
<path id= "110" d=" M 3.18198 1.83712 L 6.01041 0.204124 " />
<path d="M6.01041 -1.22474 A1.75 1.01036 -60 0 1 5.13541 -1.13807" />
<path d="M5.13541 -1.13807 A1.75 1.01036 -60 0 1 4.97667 -2.84219" />
<path id= "113" d=" M 32.5269 49.8063 L 33.9411 50.6228 " />
<path id= "114" d=" M 26.8701 62.8702 L 18.3848 57.9713 " />
<path d="M33.9411 58.7878 A10 5.7735 60 0 1 31.8701 63.3655" />
<path d="M31.8701 63.3655 A10 5.7735 60 0 1 26.8701 62.8702" />
<path id= "117" d=" M 33.9411 14.6969 L 33.9411 58.7878 " />
<path d="M26.8701 2.44949 A10 5.7735 60 0 1 33.9411 14.6969" />
<path id= "119" d=" M 26.8701 2.44949 L 18.3848 -2.44949 " />
<path id= "120" d=" M 18.3848 -4.89898 L 18.3848 -2.44949 " />
<path d="M28.9914 1.22474 A10 5.7735 60 0 1 35.3663 9.53749" />
<path id= "122" d=" M 52.3369 -0.260464 L 35.3663 9.53749 " />
<path d="M45.9619 -8.57321 A10 5.7735 60 0 1 52.3369 -0.260464" />
<path id= "124" d=" M -23.6881 -29.1898 L -23.6881 -26.7403 " />
<path id= "125" d=" M -23.6881 -26.7403 L -9.54594 -34.9052 " />
<path id= "126" d=" M -9.54594 -37.3547 L -9.54594 -34.9052 " />
<path d="M-41.0232 -34.566 A10 5.7735 60 0 1 -39.6482 -36.0129" />
<path d="M-39.6482 -36.0129 A10 5.7735 60 0 1 -34.6482 -35.5176" />
<path d="M-22.6777 -45.8108 A10 5.7735 60 0 1 -17.6777 -45.3156" />
<path d="M35.3663 9.53749 A64 36.9504 60 0 1 35.3663 65.5928" />
<path d="M52.3369 -0.260464 A64 36.9504 60 0 1 52.3369 55.7949" />
<path d="M-9.36916 10.7165 A1.75 1.01036 -60 0 1 -10.7085 12.9138" />
<path d="M-9.37336 10.6013 A1.75 1.01036 -60 0 1 -9.36916 10.7165" />
<path id= "134" d=" M -23.6881 33.6805 L -32.5269 28.5774 " />
<path id= "135" d=" M -18.3848 20.4124 L -18.0312 20.6165 " />
<path d="M-18.3848 20.4124 A10 5.7735 60 0 1 -25.4558 8.16497" />
<path d="M-32.5269 28.5774 A10 5.7735 60 0 1 -39.598 16.3299" />
<path id= "138" d=" M -39.598 -27.7609 L -39.598 16.3299 " />
<path id= "139" d=" M -25.4558 -27.7609 L -25.4558 8.16497 " />
<path d="M-32.5269 -31.8434 A10 5.7735 -120 0 0 -37.5269 -32.3387" />
<path d="M-37.5269 -32.3387 A10 5.7735 -120 0 0 -39.598 -27.7609" />
<path id= "142" d=" M -23.6881 -26.7403 L -32.5269 -31.8434 " />
<path d="M-41.0232 21.4894 A64 36.9504 60 0 1 -41.0232 -34.566" />
<path id= "144" d=" M 3.18198 30.4145 L 3.18198 32.864 " />
<path d="M0.38048 33.696 A1.75 1.01036 -60 0 1 1.93566 32.9814" />
<path d="M1.93566 32.9814 A1.75 1.01036 -60 0 1 2.24651 33.4041" />
<path id= "147" d=" M 5.3033 37.3547 L 4.82455 37.6311 " />
<path id= "148" d=" M 5.3033 36.5904 L 5.3033 37.3547 " />
<path id= "149" d=" M 10.253 26.332 L 10.253 28.7815 " />
<path d="M7.45155 29.6135 A1.75 1.01036 -60 0 1 9.00673 28.899" />
<path d="M9.00673 28.899 A1.75 1.01036 -60 0 1 9.31758 29.3216" />
<path id= "152" d=" M 12.3744 33.2722 L 11.8956 33.5486 " />
<path id= "153" d=" M 12.3744 32.5079 L 12.3744 33.2722 " />
<path d="M-8.66206 10.3083 A2.75 1.58771 -60 0 1 -10.776 13.7656" />
<path d="M-8.66945 10.1169 A2.75 1.58771 -60 0 1 -8.66206 10.3083" />
</g>
</g>



<g id="right shoulder"
   transform="rotate(60,450,650) translate(450,650) scale(2,2)"
  >
<g   stroke="rgb(0, 0, 0)"
   stroke-width="0.175"
   stroke-linecap="butt"
   stroke-linejoin="miter"
   fill="none"
   transform="scale(1,-1)"
  >
<path id= "1" d=" M -139.29 234.316 L -135.754 236.358 " />
<path id= "2" d=" M -176.766 212.679 L -173.231 214.721 " />
</g>
<g   stroke="rgb(0, 0, 0)"
   stroke-width="0.175"
   stroke-linecap="butt"
   stroke-linejoin="miter"
   fill="none"
   transform="scale(1,-1)"
  >
<path id= "1" d=" M -113.491 182.283 L -113.491 216.576 " />
<path id= "2" d=" M -113.491 182.283 L -154.503 158.604 " />
<path id= "3" d=" M -138.239 196.572 L -113.491 182.283 " />
<path id= "4" d=" M -113.491 216.576 L -121.976 231.273 " />
<path id= "5" d=" M -138.239 230.864 L -138.239 196.572 " />
<path id= "6" d=" M -121.976 231.273 L -129.754 235.763 " />
<path d="M-129.754 235.763 A12 6.9282 -60 0 1 -135.754 236.358" />
<path d="M-135.754 236.358 A12 6.9282 -60 0 1 -138.239 230.864" />
<path d="M-123.744 218.005 A3 1.73205 -60 0 1 -127.365 221.827" />
<path d="M-127.365 221.827 A3 1.73205 -60 0 1 -124.365 216.631" />
<path d="M-124.365 216.631 A3 1.73205 -60 0 1 -123.744 218.005" />
<path id= "12" d=" M -141.775 228.823 L -141.775 202.695 " />
<path d="M-141.775 228.823 A12 6.9282 120 0 0 -139.29 234.316" />
<path id= "14" d=" M -125.958 218.745 L -126.288 218.993 " />
<path id= "15" d=" M -126.338 219.401 L -126.288 218.993 " />
<path id= "16" d=" M -141.775 202.695 L -175.716 183.099 " />
<path id= "17" d=" M -175.716 209.227 L -175.716 183.099 " />
<path id= "18" d=" M -152.028 196.776 L -159.453 209.635 " />
<path d="M-175.716 209.227 A12 6.9282 120 0 0 -173.231 214.721" />
<path d="M-173.231 214.721 A12 6.9282 120 0 0 -167.231 214.126" />
<path id= "21" d=" M -159.453 209.635 L -167.231 214.126 " />
<path d="M-162.104 196.878 A1.75 1.01036 -60 0 1 -164.217 199.108" />
<path d="M-164.217 199.108 A1.75 1.01036 -60 0 1 -162.467 196.077" />
<path d="M-162.467 196.077 A1.75 1.01036 -60 0 1 -162.104 196.878" />
<path id= "25" d=" M -179.252 172.893 L -154.503 158.604 " />
<path id= "26" d=" M -179.252 207.186 L -179.252 172.893 " />
<path d="M-176.766 212.679 A12 6.9282 -60 0 1 -179.252 207.186" />
<path id= "28" d=" M -138.239 196.572 L -179.252 172.893 " />
<path id= "29" d=" M -157.954 181.774 L -157.937 181.781 " />
<path id= "30" d=" M -157.954 181.774 L -152.603 177.584 " />
<path id= "31" d=" M -157.889 173.444 L -152.603 177.584 " />
<path id= "32" d=" M -157.887 173.443 L -157.889 173.445 " />
<path d="M-153.634 170.91 A3.15 1.81865 1.94768e-015 0 0 -158.36 172.485" />
<path d="M-158.36 172.485 A3.15 1.81865 1.94768e-015 0 0 -157.887 173.444" />
<path id= "35" d=" M -153.621 170.901 L -153.634 170.91 " />
<path id= "36" d=" M -153.621 170.901 L -146.364 173.99 " />
<path id= "37" d=" M -139.194 170.938 L -146.364 173.99 " />
<path id= "38" d=" M -139.193 170.94 L -139.194 170.938 " />
<path d="M-134.805 173.395 A3.15 1.81865 1.94768e-015 0 0 -134.382 172.485" />
<path d="M-134.382 172.485 A3.15 1.81865 1.94768e-015 0 0 -139.193 170.939" />
<path id= "41" d=" M -134.789 173.402 L -134.805 173.395 " />
<path id= "42" d=" M -134.789 173.402 L -140.139 177.592 " />
<path id= "43" d=" M -134.853 181.732 L -140.139 177.592 " />
<path id= "44" d=" M -134.856 181.733 L -134.853 181.731 " />
<path d="M-139.109 184.266 A3.15 1.81865 1.94768e-015 0 0 -134.382 182.691" />
<path d="M-134.382 182.691 A3.15 1.81865 1.94768e-015 0 0 -134.855 181.732" />
<path id= "47" d=" M -139.121 184.275 L -139.109 184.266 " />
<path id= "48" d=" M -139.121 184.275 L -146.378 181.186 " />
<path id= "49" d=" M -153.548 184.238 L -146.378 181.186 " />
<path id= "50" d=" M -153.55 184.236 L -153.548 184.238 " />
<path d="M-157.937 181.781 A3.15 1.81865 1.94768e-015 0 0 -158.36 182.691" />
<path d="M-158.36 182.691 A3.15 1.81865 1.94768e-015 0 0 -153.55 184.237" />
<path d="M-125.511 216.984 A3 1.73205 -60 0 1 -127.961 220.818" />
<path d="M-125.537 216.62 A3 1.73205 -60 0 1 -125.511 216.984" />
<path id= "55" d=" M -126.136 219.081 L -126.288 218.993 " />
<path d="M-148.139 177.792 A3 1.73205 1.94768e-015 0 0 -149.018 179.017" />
<path d="M-149.018 179.017 A3 1.73205 1.94768e-015 0 0 -143.018 179.017" />
<path d="M-143.018 179.017 A3 1.73205 1.94768e-015 0 0 -148.139 177.792" />
<path id= "59" d=" M -157.937 183.414 L -157.937 181.781 " />
<path id= "60" d=" M -152.603 177.584 L -152.603 179.217 " />
<path id= "61" d=" M -152.603 179.217 L -157.937 183.394 " />
<path id= "62" d=" M -157.887 173.446 L -157.887 173.444 " />
<path d="M-153.634 172.543 A3.15 1.81865 1.94768e-015 0 0 -158.025 173.301" />
<path id= "64" d=" M -153.634 172.543 L -153.634 170.91 " />
<path id= "65" d=" M -153.621 170.901 L -153.621 172.534 " />
<path id= "66" d=" M -153.634 172.543 L -153.621 172.534 " />
<path id= "67" d=" M -146.364 175.623 L -153.621 172.534 " />
<path id= "68" d=" M -146.364 175.623 L -146.364 173.99 " />
<path id= "69" d=" M -139.194 170.938 L -139.194 172.571 " />
<path id= "70" d=" M -146.364 175.623 L -139.194 172.571 " />
<path id= "71" d=" M -139.194 172.571 L -139.193 172.572 " />
<path id= "72" d=" M -139.193 172.572 L -139.193 170.939 " />
<path id= "73" d=" M -134.805 173.415 L -134.805 173.395 " />
<path d="M-134.718 173.301 A3.15 1.81865 1.94768e-015 0 0 -139.193 172.572" />
<path id= "75" d=" M -140.139 179.225 L -140.139 177.592 " />
<path id= "76" d=" M -140.139 179.225 L -134.855 183.363 " />
<path id= "77" d=" M -134.855 183.365 L -134.855 181.732 " />
<path d="M-134.718 183.508 A3.15 1.81865 1.94768e-015 0 0 -134.855 183.365" />
<path d="M-157.937 183.414 A3.15 1.81865 1.94768e-015 0 0 -158.025 183.508" />
</g>
</g>



<g id="left arm"
   transform="rotate(60,450,800) translate(450,800) scale(2,2)"
  >
<g   stroke="rgb(0, 0, 0)"
   stroke-width="0.175"
   stroke-linecap="butt"
   stroke-linejoin="miter"
   fill="none"
   transform="scale(1,-1)"
  >
<path id= "1" d=" M -80.0074 169.045 L -80.0074 165.779 " />
<path id= "2" d=" M -80.0074 204.155 L -80.0074 200.889 " />
</g>
<g   stroke="rgb(0, 0, 0)"
   stroke-width="0.175"
   stroke-linecap="butt"
   stroke-linejoin="miter"
   fill="none"
   transform="scale(1,-1)"
  >
<path id= "1" d=" M -110.309 195.143 L -105.005 192.081 " />
<path id= "2" d=" M -105.005 192.081 L -125.265 180.384 " />
<path id= "3" d=" M -115.258 192.285 L -110.309 195.143 " />
<path id= "4" d=" M -109.955 189.223 L -115.258 192.285 " />
<path id= "5" d=" M -112.784 187.59 L -109.955 189.223 " />
<path id= "6" d=" M -112.784 187.59 L -118.087 190.652 " />
<path id= "7" d=" M -137.886 179.221 L -118.087 190.652 " />
<path id= "8" d=" M -129.401 171.056 L -122.245 172.497 " />
<path id= "9" d=" M -137.886 179.221 L -170.413 198 " />
<path id= "10" d=" M -173.595 196.572 L -129.401 171.056 " />
<path id= "11" d=" M -170.413 198 L -165.463 200.858 " />
<path id= "12" d=" M -173.595 196.572 L -173.595 199.021 " />
<path id= "13" d=" M -161.927 198.817 L -165.463 200.858 " />
<path id= "14" d=" M -173.595 199.021 L -145.31 215.351 " />
<path id= "15" d=" M -161.927 198.817 L -147.078 207.39 " />
<path id= "16" d=" M -145.31 215.351 L -139.3 211.881 " />
<path id= "17" d=" M -147.078 207.39 L -152.382 210.452 " />
<path id= "18" d=" M -144.25 209.023 L -139.3 211.881 " />
<path id= "19" d=" M -152.382 210.452 L -149.553 212.085 " />
<path id= "20" d=" M -144.25 209.023 L -149.553 212.085 " />
<path id= "21" d=" M -143.189 233.722 L -105.005 211.677 " />
<path id= "22" d=" M -105.005 211.677 L -100.409 218.372 " />
<path id= "23" d=" M -143.189 233.722 L -145.31 232.497 " />
<path id= "24" d=" M -100.409 209.023 L -100.409 218.372 " />
<path id= "25" d=" M -145.31 232.497 L -145.31 215.351 " />
<path id= "26" d=" M -100.409 189.427 L -100.409 209.023 " />
<path id= "27" d=" M -100.409 189.427 L -100.409 180.078 " />
<path id= "28" d=" M -139.3 211.881 L -139.3 229.027 " />
<path id= "29" d=" M -105.005 192.081 L -100.409 180.078 " />
<path id= "30" d=" M -110.309 212.289 L -139.3 229.027 " />
<path id= "31" d=" M -110.309 195.143 L -110.309 212.289 " />
<path d="M-105.359 196.776 A3 1.73205 -60 0 1 -108.98 200.598" />
<path d="M-108.98 200.598 A3 1.73205 -60 0 1 -105.98 195.402" />
<path d="M-105.98 195.402 A3 1.73205 -60 0 1 -105.359 196.776" />
<path d="M-140.007 216.78 A3 1.73205 -60 0 1 -143.628 220.603" />
<path d="M-143.628 220.603 A3 1.73205 -60 0 1 -140.628 215.407" />
<path d="M-140.628 215.407 A3 1.73205 -60 0 1 -140.007 216.78" />
<path d="M-105.359 204.941 A3 1.73205 -60 0 1 -108.98 208.763" />
<path d="M-108.98 208.763 A3 1.73205 -60 0 1 -105.98 203.567" />
<path d="M-105.98 203.567 A3 1.73205 -60 0 1 -105.359 204.941" />
<path d="M-140.007 224.945 A3 1.73205 -60 0 1 -143.628 228.768" />
<path d="M-143.628 228.768 A3 1.73205 -60 0 1 -140.628 223.571" />
<path d="M-140.628 223.571 A3 1.73205 -60 0 1 -140.007 224.945" />
<path id= "44" d=" M -100.409 180.078 L -120.669 168.381 " />
<path id= "45" d=" M -125.265 180.384 L -120.669 168.381 " />
<path id= "46" d=" M -137.886 196.367 L -110.309 212.289 " />
<path id= "47" d=" M -115.258 192.285 L -115.258 208.615 " />
<path id= "48" d=" M -115.258 208.615 L -118.087 206.982 " />
<path id= "49" d=" M -118.087 190.652 L -118.087 206.982 " />
<path id= "50" d=" M -137.886 179.221 L -137.886 196.367 " />
<path id= "51" d=" M -121.622 190.652 L -123.744 189.427 " />
<path id= "52" d=" M -121.622 190.652 L -121.622 195.551 " />
<path id= "53" d=" M -123.744 189.427 L -123.744 194.326 " />
<path id= "54" d=" M -121.622 195.551 L -123.744 194.326 " />
<path id= "55" d=" M -121.622 203.716 L -123.744 202.491 " />
<path id= "56" d=" M -121.622 198.817 L -121.622 203.716 " />
<path id= "57" d=" M -123.744 197.592 L -123.744 202.491 " />
<path id= "58" d=" M -121.622 198.817 L -123.744 197.592 " />
<path id= "59" d=" M -120.669 168.34 L -120.669 168.381 " />
<path id= "60" d=" M -114.465 164.759 L -120.669 168.34 " />
<path id= "61" d=" M -112.784 187.59 L -112.784 190.856 " />
<path id= "62" d=" M -94.147 160.195 L -114.465 164.759 " />
<path id= "63" d=" M -115.258 205.349 L -118.087 206.982 " />
<path d="M-115.258 203.104 A1.75 1.01036 -60 0 1 -116.133 203.19" />
<path d="M-116.133 203.19 A1.75 1.01036 -60 0 1 -115.258 200.246" />
<path d="M-115.258 194.939 A1.75 1.01036 -60 0 1 -116.133 195.025" />
<path d="M-116.133 195.025 A1.75 1.01036 -60 0 1 -114.621 191.917" />
<path id= "68" d=" M -137.886 196.367 L -152.028 204.532 " />
<path id= "69" d=" M -159.478 197.625 L -159.942 198.067 " />
<path id= "70" d=" M -159.942 198.067 L -160.365 198.592 " />
<path id= "71" d=" M -160.365 198.592 L -160.727 199.179 " />
<path id= "72" d=" M -160.727 199.179 L -160.848 199.44 " />
<path id= "73" d=" M -157.592 201.32 L -157.259 200.782 " />
<path id= "74" d=" M -157.259 200.782 L -156.972 200.161 " />
<path id= "75" d=" M -156.972 200.161 L -156.774 199.532 " />
<path id= "76" d=" M -156.774 199.532 L -156.672 198.922 " />
<path id= "77" d=" M -156.672 198.922 L -156.672 198.359 " />
<path id= "78" d=" M -156.672 198.359 L -156.774 197.867 " />
<path id= "79" d=" M -156.774 197.867 L -156.972 197.466 " />
<path id= "80" d=" M -156.972 197.466 L -157.259 197.176 " />
<path id= "81" d=" M -157.259 197.176 L -157.621 197.009 " />
<path id= "82" d=" M -157.621 197.009 L -158.044 196.971 " />
<path id= "83" d=" M -158.044 196.971 L -158.508 197.065 " />
<path id= "84" d=" M -158.508 197.065 L -158.993 197.286 " />
<path id= "85" d=" M -158.993 197.286 L -159.478 197.625 " />
<path id= "86" d=" M -173.595 216.167 L -173.595 199.021 " />
<path id= "87" d=" M -173.595 216.167 L -145.31 232.497 " />
<path id= "88" d=" M -147.078 207.39 L -147.078 210.656 " />
<path d="M-149.715 211.992 A1.75 1.01036 -60 0 1 -149.269 211.921" />
<path id= "90" d=" M -100.409 218.372 L -108.505 213.697 " />
<path id= "91" d=" M -108.541 213.718 L -100.407 218.414 " />
<path id= "92" d=" M -100.407 180.039 L -100.407 218.414 " />
<path id= "93" d=" M -120.669 168.34 L -100.407 180.039 " />
<path id= "94" d=" M -121.622 193.101 L -123.744 194.326 " />
<path d="M-121.622 191.825 A1.75 1.01036 -60 0 1 -121.79 191.759" />
<path d="M-121.79 191.759 A1.75 1.01036 -60 0 1 -122.069 190.394" />
<path id= "97" d=" M -121.622 201.266 L -123.744 202.491 " />
<path d="M-121.622 199.99 A1.75 1.01036 -60 0 1 -121.79 199.924" />
<path d="M-121.79 199.924 A1.75 1.01036 -60 0 1 -122.069 198.559" />
<path d="M-83.0469 170.016 A10.3774 5.99141 -9.73842e-015 0 0 -80.0074 165.779" />
<path d="M-80.0074 165.779 A10.3774 5.99141 -9.73842e-015 0 0 -94.147 160.195" />
<path id= "102" d=" M -100.407 180.039 L -83.0469 170.016 " />
<path d="M-105.276 165.887 A0.8 0.46188 -2.53199e-014 0 0 -105.51 166.213" />
<path d="M-105.51 166.213 A0.8 0.46188 -2.53199e-014 0 0 -103.91 166.213" />
<path d="M-103.91 166.213 A0.8 0.46188 -2.53199e-014 0 0 -105.276 165.887" />
<path d="M-92.5532 164.161 A3 1.73205 -1.94768e-014 0 0 -93.4319 165.385" />
<path d="M-93.4319 165.385 A3 1.73205 -1.94768e-014 0 0 -87.4319 165.385" />
<path d="M-87.4319 165.385 A3 1.73205 -1.94768e-014 0 0 -92.5532 164.161" />
<path id= "109" d=" M -83.0469 173.282 L -93.4194 179.27 " />
<path d="M-80.0074 169.045 A10.3774 5.99141 180 0 1 -83.0469 173.282" />
<path d="M-88.6954 166.798 A3.65 2.10733 -2.14245e-014 0 0 -91.1252 166.582" />
<path id= "112" d=" M -91.1252 166.582 L -92.3465 166.719 " />
<path id= "113" d=" M -93.4194 211.114 L -93.4194 179.27 " />
<path id= "114" d=" M -83.0469 205.125 L -93.4194 211.114 " />
<path d="M-93.4194 195.159 A10.3774 5.99141 180 0 1 -80.0074 200.889" />
<path d="M-80.0074 200.889 A10.3774 5.99141 180 0 1 -83.0469 205.125" />
<path d="M-91.6693 199.78 A1.75 1.01036 -1.94768e-014 0 0 -92.1819 200.495" />
<path d="M-92.1819 200.495 A1.75 1.01036 -1.94768e-014 0 0 -88.6819 200.495" />
<path d="M-88.6819 200.495 A1.75 1.01036 -1.94768e-014 0 0 -91.6693 199.78" />
<path id= "120" d=" M -158.673 199.966 L -159.006 200.504 " />
<path id= "121" d=" M -158.673 199.966 L -157.259 200.782 " />
<path id= "122" d=" M -158.386 199.344 L -158.673 199.966 " />
<path id= "123" d=" M -158.386 199.344 L -156.972 200.161 " />
<path id= "124" d=" M -158.188 198.715 L -158.386 199.344 " />
<path id= "125" d=" M -158.188 198.715 L -156.774 199.532 " />
<path id= "126" d=" M -158.087 198.106 L -158.188 198.715 " />
<path id= "127" d=" M -158.087 198.106 L -156.672 198.922 " />
<path id= "128" d=" M -158.087 197.542 L -158.087 198.106 " />
<path id= "129" d=" M -158.087 197.542 L -156.672 198.359 " />
<path id= "130" d=" M -158.188 197.05 L -158.087 197.542 " />
<path id= "131" d=" M -158.188 197.05 L -156.774 197.867 " />
<path id= "132" d=" M -158.21 197.005 L -158.188 197.05 " />
<path id= "133" d=" M -157.791 196.994 L -156.972 197.466 " />
<path d="M-159.705 197.841 A1.5 0.866025 -60 0 1 -159.657 197.865" />
<path d="M-159.657 197.865 A1.5 0.866025 -60 0 1 -159.923 199.974" />
<path d="M-83.0469 208.391 A10.3774 5.99141 -9.73842e-015 0 0 -80.0074 204.155" />
<path id= "137" d=" M -100.407 218.414 L -83.0469 208.391 " />
<path d="M-121.622 190.797 A1.75 1.01036 -60 0 1 -122.142 191.143" />
<path d="M-121.622 198.961 A1.75 1.01036 -60 0 1 -122.142 199.308" />
<path d="M-92.5532 165.385 A3 1.73205 -1.94768e-014 0 0 -93.2381 165.998" />
<path d="M-87.6256 165.998 A3 1.73205 -1.94768e-014 0 0 -92.5532 165.385" />
</g>
</g>



<g id="left hand"
   transform="rotate(60,450,870) translate(450,870) scale(2,2)"
  >
<g   stroke="rgb(0, 0, 0)"
   stroke-width="0.175"
   stroke-linecap="butt"
   stroke-linejoin="miter"
   fill="none"
   transform="scale(1,-1)"
  >
<path id= "1" d=" M -53.7401 169.668 L -53.7401 169.586 " />
<path id= "2" d=" M -53.7401 169.586 L -59.5384 166.239 " />
<path id= "3" d=" M -69.5469 178.794 L -53.7401 169.668 " />
<path id= "4" d=" M -59.5384 166.239 L -73.5391 174.322 " />
<path id= "5" d=" M -69.5469 190.388 L -69.5469 178.794 " />
<path id= "6" d=" M -73.5391 174.322 L -73.5391 189.427 " />
<path id= "7" d=" M -73.5391 189.427 L -90.5097 199.225 " />
<path id= "8" d=" M -69.5469 190.388 L -91.2168 202.899 " />
<path id= "9" d=" M -90.5097 199.225 L -90.5097 198.409 " />
<path id= "10" d=" M -91.2168 202.899 L -93.3381 201.675 " />
<path id= "11" d=" M -92.2774 199.429 L -90.5097 198.409 " />
<path id= "12" d=" M -93.3381 201.675 L -93.3381 185.753 " />
<path id= "13" d=" M -92.2774 199.429 L -92.2774 195.347 " />
<path id= "14" d=" M -90.5097 184.12 L -93.3381 185.753 " />
<path id= "15" d=" M -92.2774 195.347 L -90.5097 194.326 " />
<path id= "16" d=" M -90.5097 194.326 L -90.5097 184.12 " />
<path id= "17" d=" M -59.5384 166.239 L -70.145 160.115 " />
<path id= "18" d=" M -70.145 160.115 L -103.945 179.629 " />
<path id= "19" d=" M -103.945 195.551 L -103.945 179.629 " />
<path id= "20" d=" M -53.7401 169.668 L -43.8406 175.547 " />
<path id= "21" d=" M -54.3441 181.611 L -43.8406 175.547 " />
<path id= "22" d=" M -69.5469 178.794 L -54.3441 181.611 " />
<path id= "23" d=" M -73.5391 174.322 L -82.3779 169.219 " />
<path id= "24" d=" M -82.3779 169.219 L -99.3485 179.017 " />
<path id= "25" d=" M -93.3381 185.753 L -103.945 179.629 " />
<path id= "26" d=" M -99.3485 179.017 L -90.5097 184.12 " />
<path d="M-75.8372 170.75 A1 0.57735 -2.72676e-014 0 0 -77.5443 171.158" />
<path d="M-77.5443 171.158 A1 0.57735 -2.72676e-014 1 0 -75.5443 171.158" />
<path d="M-75.5443 171.158 A1 0.57735 -2.72676e-014 0 0 -75.8372 170.75" />
<path d="M-95.2826 181.977 A1 0.57735 -2.72676e-014 0 0 -96.9897 182.385" />
<path d="M-96.9897 182.385 A1 0.57735 -2.72676e-014 1 0 -94.9897 182.385" />
<path d="M-94.9897 182.385 A1 0.57735 -2.72676e-014 0 0 -95.2826 181.977" />
<path id= "33" d=" M -54.3441 181.611 L -39.7748 177.894 " />
<path id= "34" d=" M -39.7748 182.793 L -39.7748 177.894 " />
<path id= "35" d=" M -69.5469 190.388 L -39.7748 182.793 " />
<path id= "36" d=" M -82.3779 169.219 L -82.3779 184.324 " />
<path id= "37" d=" M -73.5391 189.427 L -82.3779 184.324 " />
<path id= "38" d=" M -82.3779 184.324 L -90.5097 189.019 " />
<path id= "39" d=" M -87.839 193.066 L -88.3268 192.784 " />
<path id= "40" d=" M -87.4633 193.4 L -87.839 193.066 " />
<path id= "41" d=" M -87.216 193.772 L -87.4633 193.4 " />
<path id= "42" d=" M -87.1081 194.165 L -87.216 193.772 " />
<path id= "43" d=" M -87.1442 194.563 L -87.1081 194.165 " />
<path id= "44" d=" M -87.3228 194.948 L -87.1442 194.563 " />
<path id= "45" d=" M -87.636 195.303 L -87.3228 194.948 " />
<path id= "46" d=" M -88.0701 195.612 L -87.636 195.303 " />
<path id= "47" d=" M -88.6063 195.863 L -88.0701 195.612 " />
<path id= "48" d=" M -89.221 196.044 L -88.6063 195.863 " />
<path id= "49" d=" M -89.8874 196.147 L -89.221 196.044 " />
<path id= "50" d=" M -90.5763 196.168 L -89.8874 196.147 " />
<path id= "51" d=" M -91.2577 196.105 L -90.5763 196.168 " />
<path id= "52" d=" M -91.9018 195.963 L -91.2577 196.105 " />
<path id= "53" d=" M -92.2774 195.822 L -91.9018 195.963 " />
<path id= "54" d=" M -90.2309 192.362 L -90.5097 192.371 " />
<path id= "55" d=" M -89.5495 192.425 L -90.2309 192.362 " />
<path id= "56" d=" M -88.9054 192.567 L -89.5495 192.425 " />
<path id= "57" d=" M -88.3268 192.784 L -88.9054 192.567 " />
<path id= "58" d=" M -17.1393 169.734 L -17.1473 169.729 " />
<path id= "59" d=" M -17.1473 169.729 L -39.7748 182.793 " />
<path id= "60" d=" M -90.5097 198.409 L -92.2774 197.388 " />
<path id= "61" d=" M -93.3381 201.675 L -103.945 195.551 " />
<path id= "62" d=" M -17.1473 164.83 L -39.7748 177.894 " />
<path id= "63" d=" M -17.1473 164.83 L -44.371 149.113 " />
<path id= "64" d=" M -44.371 149.113 L -66.7862 162.054 " />
<path id= "65" d=" M -17.1473 169.729 L -17.1473 164.83 " />
<path id= "66" d=" M -87.839 194.699 L -88.3268 194.417 " />
<path id= "67" d=" M -88.3268 194.417 L -88.3268 192.784 " />
<path id= "68" d=" M -87.839 194.699 L -87.839 193.066 " />
<path id= "69" d=" M -87.4633 195.033 L -87.839 194.699 " />
<path id= "70" d=" M -87.4633 195.033 L -87.4633 193.4 " />
<path id= "71" d=" M -87.4352 195.075 L -87.4633 195.033 " />
<path id= "72" d=" M -87.216 194.718 L -87.216 193.772 " />
<path id= "73" d=" M -90.2309 193.995 L -90.5097 194.004 " />
<path id= "74" d=" M -90.2309 193.995 L -90.2309 192.362 " />
<path id= "75" d=" M -89.5495 194.058 L -90.2309 193.995 " />
<path id= "76" d=" M -89.5495 194.058 L -89.5495 192.425 " />
<path id= "77" d=" M -88.9054 194.2 L -89.5495 194.058 " />
<path id= "78" d=" M -88.9054 194.2 L -88.9054 192.567 " />
<path id= "79" d=" M -88.3268 194.417 L -88.9054 194.2 " />
<path id= "80" d=" M -44.379 149.117 L -44.379 141.76 " />
<path id= "81" d=" M -17.1393 157.486 L -44.379 141.76 " />
<path id= "82" d=" M -17.1393 169.734 L -17.1393 157.486 " />
<path d="M-25.8094 146.765 A30 17.3205 0 0 0 -44.379 141.76" />
<path d="M-17.1393 157.486 A30 17.3205 0 0 0 -25.8094 146.765" />
<path d="M-88.9064 195.951 A1.5 0.866025 -9.73842e-015 0 0 -88.9036 195.898" />
<path d="M-88.9036 195.898 A1.5 0.866025 -9.73842e-015 1 0 -91.9036 195.898" />
<path d="M-91.9036 195.898 A1.5 0.866025 -9.73842e-015 0 0 -91.8994 195.963" />
</g>
</g>



<g id="left shoulder"
   transform="rotate(60,150,790) translate(150,790) scale(2,2)"
  >
<g   stroke="rgb(0, 0, 0)"
   stroke-width="0.175"
   stroke-linecap="butt"
   stroke-linejoin="miter"
   fill="none"
   transform="scale(1,-1)"
  >
<path id= "1" d=" M -113.491 103.899 L -113.491 69.6063 " />
<path id= "2" d=" M -141.558 79.5293 L -150.967 74.0971 " />
<path id= "3" d=" M -150.967 74.0971 L -150.967 47.9692 " />
<path id= "4" d=" M -138.239 118.188 L -113.491 103.899 " />
<path id= "5" d=" M -113.491 69.6063 L -121.976 64.7074 " />
<path id= "6" d=" M -138.239 83.895 L -138.239 118.188 " />
<path id= "7" d=" M -121.976 64.7074 L -129.754 69.1981 " />
<path d="M-129.754 69.1981 A12 6.9282 120 0 0 -138.239 83.895" />
<path d="M-123.744 80.0167 A3 1.73205 120 0 0 -124.365 78.6433" />
<path d="M-124.365 78.6433 A3 1.73205 120 0 0 -127.365 83.8395" />
<path d="M-127.365 83.8395 A3 1.73205 120 0 0 -123.744 80.0167" />
<path id= "12" d=" M -121.976 64.7074 L -125.511 62.6661 " />
<path id= "13" d=" M -141.775 81.8538 L -141.775 107.982 " />
<path d="M-141.775 81.8538 A12 6.9282 -60 0 1 -133.29 67.1568" />
<path id= "15" d=" M -125.511 62.6661 L -133.29 67.1568 " />
<path id= "16" d=" M -126.331 81.4032 L -126.281 80.993 " />
<path id= "17" d=" M -125.953 80.746 L -126.281 80.993 " />
<path id= "18" d=" M -150.967 74.0971 L -175.716 88.3858 " />
<path id= "19" d=" M -141.775 107.982 L -175.716 88.3858 " />
<path d="M-148.139 89.6105 A3 1.73205 -1.75292e-014 0 0 -149.018 90.8352" />
<path d="M-149.018 90.8352 A3 1.73205 -1.75292e-014 0 0 -143.018 90.8352" />
<path d="M-143.018 90.8352 A3 1.73205 -1.75292e-014 0 0 -148.139 89.6105" />
<path id= "23" d=" M -175.716 62.2579 L -175.716 88.3858 " />
<path id= "24" d=" M -150.967 47.9692 L -159.453 43.0702 " />
<path d="M-175.716 62.2579 A12 6.9282 -60 0 1 -167.231 47.5609" />
<path id= "26" d=" M -159.453 43.0702 L -167.231 47.5609 " />
<path d="M-162.104 58.8898 A1.75 1.01036 120 0 0 -162.467 58.0887" />
<path d="M-162.467 58.0887 A1.75 1.01036 120 0 0 -164.217 61.1198" />
<path d="M-164.217 61.1198 A1.75 1.01036 120 0 0 -162.104 58.8898" />
<path id= "30" d=" M -159.453 43.0702 L -162.988 41.029 " />
<path id= "31" d=" M -179.252 60.2166 L -179.252 94.5095 " />
<path id= "32" d=" M -162.988 41.029 L -170.766 45.5197 " />
<path d="M-170.766 45.5197 A12 6.9282 120 0 0 -179.252 60.2166" />
<path id= "34" d=" M -138.239 118.188 L -179.252 94.5095 " />
<path d="M-125.511 78.996 A3 1.73205 120 0 0 -125.537 78.632" />
<path d="M-127.961 82.8302 A3 1.73205 120 0 0 -125.511 78.996" />
<path id= "37" d=" M -126.281 80.993 L -126.129 81.0806 " />
</g>
</g>



<g id="right arm"
   transform="rotate(60,150,900) translate(150,900) scale(2,2)"
  >
<g   stroke="rgb(0, 0, 0)"
   stroke-width="0.175"
   stroke-linecap="butt"
   stroke-linejoin="miter"
   fill="none"
   transform="scale(1,-1)"
  >
<path id= "1" d=" M -80.0074 60.4512 L -80.0074 63.7172 " />
<path id= "2" d=" M -80.0074 25.3418 L -80.0074 28.6078 " />
</g>
<g   stroke="rgb(0, 0, 0)"
   stroke-width="0.175"
   stroke-linecap="butt"
   stroke-linejoin="miter"
   fill="none"
   transform="scale(1,-1)"
  >
<path id= "1" d=" M -110.309 74.3012 L -105.005 71.2392 " />
<path id= "2" d=" M -115.258 71.4435 L -110.309 74.3012 " />
<path id= "3" d=" M -115.258 68.1775 L -118.087 69.8105 " />
<path id= "4" d=" M -125.158 65.728 L -118.087 69.8105 " />
<path id= "5" d=" M -173.595 78.1795 L -145.31 94.5095 " />
<path id= "6" d=" M -145.31 94.5095 L -139.3 91.0394 " />
<path id= "7" d=" M -143.189 73.6888 L -105.005 51.6433 " />
<path id= "8" d=" M -105.005 51.6433 L -100.409 39.6408 " />
<path id= "9" d=" M -143.189 73.6888 L -145.31 77.3631 " />
<path id= "10" d=" M -100.409 48.9897 L -100.409 39.6408 " />
<path id= "11" d=" M -145.31 77.3631 L -145.31 94.5095 " />
<path id= "12" d=" M -100.409 68.5856 L -100.409 48.9897 " />
<path id= "13" d=" M -100.409 68.5856 L -100.409 77.9345 " />
<path id= "14" d=" M -139.3 91.0394 L -139.3 73.8929 " />
<path id= "15" d=" M -105.005 71.2392 L -100.409 77.9345 " />
<path id= "16" d=" M -110.309 57.1548 L -139.3 73.8929 " />
<path id= "17" d=" M -110.309 74.3012 L -110.309 57.1548 " />
<path d="M-105.359 66.9527 A3 1.73205 120 0 0 -105.98 65.5794" />
<path d="M-105.98 65.5794 A3 1.73205 120 0 0 -108.98 70.7755" />
<path d="M-108.98 70.7755 A3 1.73205 120 0 0 -105.359 66.9527" />
<path d="M-140.007 86.9569 A3 1.73205 120 0 0 -140.628 85.5836" />
<path d="M-140.628 85.5836 A3 1.73205 120 0 0 -143.628 90.7797" />
<path d="M-143.628 90.7797 A3 1.73205 120 0 0 -140.007 86.9569" />
<path d="M-105.359 58.7878 A3 1.73205 120 0 0 -105.98 57.4144" />
<path d="M-105.98 57.4144 A3 1.73205 120 0 0 -108.98 62.6106" />
<path d="M-108.98 62.6106 A3 1.73205 120 0 0 -105.359 58.7878" />
<path d="M-140.007 78.7919 A3 1.73205 120 0 0 -140.628 77.4186" />
<path d="M-140.628 77.4186 A3 1.73205 120 0 0 -143.628 82.6147" />
<path d="M-143.628 82.6147 A3 1.73205 120 0 0 -140.007 78.7919" />
<path id= "30" d=" M -100.409 77.9345 L -108.505 73.26 " />
<path id= "31" d=" M -115.258 69.3611 L -116.283 68.7693 " />
<path id= "32" d=" M -115.258 71.4435 L -115.258 60.0125 " />
<path id= "33" d=" M -118.087 69.8105 L -118.087 61.6455 " />
<path id= "34" d=" M -121.622 65.728 L -123.39 64.7074 " />
<path id= "35" d=" M -121.622 65.728 L -121.622 63.6867 " />
<path d="M-115.258 62.2579 A1.75 1.01036 120 0 0 -116.133 65.2023" />
<path d="M-116.133 65.2023 A1.75 1.01036 120 0 0 -115.258 65.1156" />
<path id= "38" d=" M -129.401 30.6186 L -122.245 32.0598 " />
<path id= "39" d=" M -173.595 56.1341 L -129.401 30.6186 " />
<path id= "40" d=" M -173.595 56.1341 L -173.595 61.0331 " />
<path id= "41" d=" M -173.595 61.0331 L -173.595 78.1795 " />
<path id= "42" d=" M -173.595 61.0331 L -145.31 77.3631 " />
<path id= "43" d=" M -105.005 51.6433 L -125.265 39.9462 " />
<path id= "44" d=" M -173.595 56.1341 L -143.189 73.6888 " />
<path id= "45" d=" M -100.409 39.6408 L -120.669 27.9437 " />
<path id= "46" d=" M -125.265 39.9462 L -120.669 27.9437 " />
<path id= "47" d=" M -120.669 27.9437 L -120.669 27.9029 " />
<path id= "48" d=" M -120.669 27.9029 L -100.407 39.6012 " />
<path id= "49" d=" M -100.407 77.9765 L -100.407 39.6012 " />
<path id= "50" d=" M -116.319 68.7897 L -115.258 69.4019 " />
<path id= "51" d=" M -108.541 73.2804 L -100.407 77.9765 " />
<path d="M-83.0469 67.9537 A10.3774 5.99141 9.73842e-015 0 0 -80.0074 63.7172" />
<path id= "53" d=" M -100.407 77.9765 L -83.0469 67.9537 " />
<path d="M-92.5532 62.0986 A3 1.73205 1.75292e-014 0 0 -92.6801 62.1766" />
<path d="M-88.6954 61.911 A3 1.73205 1.75292e-014 0 0 -92.5532 62.0986" />
<path id= "56" d=" M -83.0469 64.6878 L -93.4194 70.6763 " />
<path d="M-93.4194 54.7217 A10.3774 5.99141 -180 0 1 -80.0074 60.4512" />
<path d="M-80.0074 60.4512 A10.3774 5.99141 -180 0 1 -83.0469 64.6878" />
<path d="M-90.3989 62.1646 A3.65 2.10733 2.33722e-014 0 0 -86.7819 60.0574" />
<path d="M-86.7819 60.0574 A3.65 2.10733 2.33722e-014 0 0 -91.1252 57.9884" />
<path id= "61" d=" M -90.3989 62.1646 L -93.4194 62.1804 " />
<path id= "62" d=" M -91.1252 57.9884 L -93.4194 58.2447 " />
<path id= "63" d=" M -93.4194 38.8329 L -93.4194 70.6763 " />
<path id= "64" d=" M -83.0469 32.8444 L -93.4194 38.8329 " />
<path d="M-80.0074 28.6078 A10.3774 5.99141 -180 0 1 -83.0469 32.8444" />
<path id= "66" d=" M -94.147 19.758 L -114.465 24.3211 " />
<path id= "67" d=" M -114.465 24.3211 L -120.669 27.9029 " />
<path d="M-83.0469 29.5784 A10.3774 5.99141 9.73842e-015 0 0 -80.0074 25.3418" />
<path d="M-80.0074 25.3418 A10.3774 5.99141 9.73842e-015 0 0 -94.147 19.758" />
<path id= "70" d=" M -100.407 39.6012 L -83.0469 29.5784 " />
<path d="M-91.6693 24.2336 A1.75 1.01036 1.75292e-014 0 0 -92.1819 24.9481" />
<path d="M-92.1819 24.9481 A1.75 1.01036 1.75292e-014 0 0 -88.6819 24.9481" />
<path d="M-88.6819 24.9481 A1.75 1.01036 1.75292e-014 0 0 -91.6693 24.2336" />
<path d="M-92.5532 60.8739 A3 1.73205 1.75292e-014 0 0 -93.4194 61.9407" />
<path d="M-87.6638 61.431 A3 1.73205 1.75292e-014 0 0 -92.5532 60.8739" />
<path d="M-87.2385 61.078 A3.65 2.10733 2.33722e-014 0 0 -91.1252 60.0297" />
<path id= "77" d=" M -91.1252 60.0297 L -93.4194 60.286 " />
</g>
</g>



<g id="right hand"
   transform="rotate(60,150,980) translate(150,980) scale(2,2)"
  >
<g   stroke="rgb(0, 0, 0)"
   stroke-width="0.175"
   stroke-linecap="butt"
   stroke-linejoin="miter"
   fill="none"
   transform="scale(1,-1)"
  >
<path id= "1" d=" M -53.7401 26.2912 L -53.7401 26.3728 " />
<path id= "2" d=" M -53.7401 26.3728 L -59.5384 36.4157 " />
<path id= "3" d=" M -69.5469 35.4172 L -53.7401 26.2912 " />
<path id= "4" d=" M -59.5384 36.4157 L -73.5391 44.4991 " />
<path id= "5" d=" M -73.5391 44.4991 L -73.5391 29.3939 " />
<path id= "6" d=" M -69.5469 35.4172 L -69.5469 23.823 " />
<path id= "7" d=" M -73.5391 29.3939 L -90.5097 39.1918 " />
<path id= "8" d=" M -69.5469 23.823 L -91.2168 36.3341 " />
<path id= "9" d=" M -90.5097 39.1918 L -90.5097 40.0083 " />
<path id= "10" d=" M -91.2168 36.3341 L -93.3381 40.0083 " />
<path id= "11" d=" M -92.2774 41.029 L -90.5097 40.0083 " />
<path id= "12" d=" M -93.3381 40.0083 L -93.3381 55.93 " />
<path id= "13" d=" M -92.2774 41.029 L -92.2774 45.1114 " />
<path id= "14" d=" M -90.5097 54.297 L -93.3381 55.93 " />
<path id= "15" d=" M -92.2774 45.1114 L -90.5097 44.0908 " />
<path id= "16" d=" M -90.5097 44.0908 L -90.5097 54.297 " />
<path id= "17" d=" M -103.945 33.8846 L -103.945 49.8063 " />
<path id= "18" d=" M -101.823 30.2104 L -103.945 33.8846 " />
<path id= "19" d=" M -80.1535 17.6993 L -101.823 30.2104 " />
<path id= "20" d=" M -53.7401 26.2912 L -50.5603 23.8783 " />
<path id= "21" d=" M -69.5469 35.4172 L -54.3441 24.8436 " />
<path id= "22" d=" M -73.5391 44.4991 L -82.3779 39.396 " />
<path id= "23" d=" M -82.3779 39.396 L -90.5097 44.0908 " />
<path id= "24" d=" M -92.2774 45.1114 L -93.3381 45.7238 " />
<path id= "25" d=" M -93.3381 55.93 L -103.945 49.8063 " />
<path id= "26" d=" M -54.3441 24.8436 L -39.7748 21.1268 " />
<path id= "27" d=" M -39.7748 16.2279 L -39.7748 21.1268 " />
<path id= "28" d=" M -69.5469 23.823 L -39.7748 16.2279 " />
<path id= "29" d=" M -82.3779 39.396 L -82.3779 34.497 " />
<path id= "30" d=" M -91.2168 36.3341 L -101.823 30.2104 " />
<path id= "31" d=" M -80.1535 17.6993 L -66.9984 0.51031 " />
<path id= "32" d=" M -44.371 -12.5536 L -66.9984 0.51031 " />
<path id= "33" d=" M -44.371 -12.5536 L -44.379 -12.5583 " />
<path d="M-25.8094 -7.55259 A30 17.3205 0 0 0 -44.379 -12.5583" />
<path d="M-17.1393 3.16856 A30 17.3205 0 0 0 -25.8094 -7.55259" />
<path id= "36" d=" M -17.1393 3.16856 L -17.1473 3.16392 " />
<path id= "37" d=" M -17.1473 3.16392 L -39.7748 16.2279 " />
<path d="M-89.3429 31.578 A1.5 0.866025 9.73842e-015 0 0 -88.9036 30.9656" />
<path d="M-88.9036 30.9656 A1.5 0.866025 9.73842e-015 0 0 -91.9036 30.9656" />
<path d="M-91.9036 30.9656 A1.5 0.866025 9.73842e-015 0 0 -89.3429 31.578" />
<path id= "41" d=" M -90.5097 44.0908 L -92.2774 43.0702 " />
<path id= "42" d=" M -93.3381 40.0083 L -103.945 33.8846 " />
<path id= "43" d=" M -17.1473 8.0629 L -39.7748 21.1268 " />
<path id= "44" d=" M -17.1473 3.16392 L -17.1473 8.0629 " />
<path id= "45" d=" M -90.2309 31.7384 L -90.2309 31.8259 " />
<path id= "46" d=" M -44.379 -12.5583 L -44.379 -12.549 " />
<path id= "47" d=" M -17.1393 15.416 L -23.5113 11.7371 " />
<path id= "48" d=" M -17.1393 3.16856 L -17.1393 15.416 " />
<path d="M-89.9036 31.7821 A1.5 0.866025 9.73842e-015 0 0 -90.9036 31.7821" />
</g>
</g>



</svg>

